<?xml version="1.0" standalone="no"?>
<!DOCTYPE svg PUBLIC "-//W3C//DTD SVG 20010904//EN"
 "http://www.w3.org/TR/2001/REC-SVG-20010904/DTD/svg10.dtd">
<svg version="1.0" xmlns="http://www.w3.org/2000/svg"
 width="700.000000pt" height="700.000000pt" viewBox="0 0 700.000000 700.000000"
 preserveAspectRatio="xMidYMid meet">
<metadata>
Created by potrace 1.14, written by Peter Selinger 2001-2017
</metadata>
<g transform="translate(0.000000,700.000000) scale(0.100000,-0.100000)"
fill="#000000" stroke="none">
<path d="M1338 5948 c-171 -13 -304 -50 -463 -128 -116 -58 -211 -126 -310
-225 -75 -75 -186 -218 -225 -288 -92 -169 -153 -330 -175 -462 -3 -16 -11
-57 -18 -90 -20 -98 -13 -621 8 -655 2 -3 6 -26 10 -50 17 -123 88 -332 151
-446 82 -149 208 -289 342 -381 116 -80 275 -146 479 -199 9 -2 12 -107 11
-439 -2 -584 -11 -651 -97 -736 -65 -66 -134 -84 -339 -88 l-43 -1 3 -57 3
-57 685 -1 c377 0 691 1 698 3 7 3 12 24 12 58 l0 54 -42 0 c-95 1 -200 26
-254 59 -39 24 -75 71 -100 131 -18 43 -19 84 -22 785 -2 407 -4 740 -5 741
-1 2 -58 5 -127 7 -179 7 -295 40 -419 121 -89 58 -191 165 -258 271 -62 97
-155 329 -177 440 -22 108 -25 125 -35 197 -14 100 -6 410 13 513 70 375 266
631 541 705 97 26 277 22 354 -8 133 -52 207 -149 227 -297 14 -101 39 -196
62 -239 58 -107 158 -159 296 -155 95 3 151 23 201 74 49 49 67 107 64 204 -6
156 -90 305 -232 407 -28 21 -54 41 -57 44 -15 16 -140 80 -219 111 -165 66
-348 92 -543 77z"/>
<path d="M2780 5706 c0 -38 4 -56 13 -57 6 0 62 -2 122 -3 133 -3 172 -10 250
-46 121 -56 157 -111 192 -287 6 -27 10 -710 16 -2818 2 -566 6 -1043 9 -1060
3 -16 9 -57 13 -90 3 -33 10 -76 15 -95 5 -19 11 -53 15 -75 9 -61 70 -236
111 -317 102 -203 252 -353 441 -439 95 -44 101 -46 163 -63 216 -58 458 -66
633 -19 113 29 185 65 241 119 101 96 91 255 -20 353 -84 74 -186 79 -324 17
-14 -6 -82 -57 -152 -113 -185 -149 -220 -168 -306 -165 -48 2 -127 49 -156
92 -39 59 -73 183 -92 342 -3 24 -8 615 -10 1313 l-5 1270 217 0 218 0 227
-313 c125 -172 234 -323 243 -335 9 -12 37 -51 64 -87 26 -36 63 -88 82 -115
19 -28 40 -56 47 -63 7 -8 18 -22 23 -33 6 -10 33 -49 61 -87 28 -37 57 -76
65 -87 44 -62 411 -569 488 -675 l91 -125 540 0 c297 1 545 4 550 7 6 3 8 29
7 57 -4 50 -4 51 -40 56 -331 48 -528 145 -733 364 -117 125 -218 259 -696
926 -167 234 -301 418 -362 502 -34 45 -61 83 -61 86 0 2 30 12 68 22 611 158
924 490 937 995 3 123 -1 171 -30 312 -10 52 -73 187 -118 255 -45 68 -138
170 -207 228 -50 42 -187 126 -250 154 -30 13 -64 28 -75 32 -41 18 -147 49
-218 63 -79 17 -103 20 -312 43 -27 3 -488 7 -1022 10 l-973 5 0 -56z m1831
-192 c238 -41 425 -156 549 -339 102 -151 145 -303 144 -515 0 -272 -94 -480
-286 -639 -118 -97 -300 -183 -460 -216 -167 -36 -235 -42 -435 -44 l-173 -2
0 855 c0 805 1 855 18 860 37 10 121 23 262 40 141 17 279 17 381 0z"/>
</g>
</svg>
