<svg xmlns="http://www.w3.org/2000/svg" width="466.281" height="45.811" viewBox="0 -1360.5 22606.4 2221" xmlns:xlink="http://www.w3.org/1999/xlink"><defs><path id="a" d="M33 157q0 101 76 192t171 92q60 0 92-52 1 1 5 6t11 11 16 12q34 24 46 24 4 0 7-3t3-5q0-9-69-285-71-284-71-288 0-8 45-9h25q6-8 6-9t-3-18q-4-13-10-19h-13q-31 2-108 2h-88q-14 0-17-1-14 0-14 8 0 3 2 15 4 16 7 19t20 3q48 0 58 7 8 5 28 88t21 85q0 1-7-3-48-39-100-39-55 0-97 40T33 157zm319 169q-23 79-75 79-35 0-67-31t-50-81q-29-79-41-164v-11q0-8-1-12 0-45 18-62t43-18q54 0 111 72l8 11 54 217z"/><path id="b" d="m213 578-13-5q-14-5-40-10t-58-7H83v46h19q47 2 87 15t56 24 28 22q2 3 12 3 9 0 17-6V361l1-300q7-7 12-9t24-4 62-2h26V0h-11q-21 3-159 3-136 0-157-3H88v46h64q16 0 25 1t16 3 8 2 6 5 6 4v517z"/><path id="c" d="M78 60q0 24 17 42t43 18q24 0 42-16t19-43q0-25-17-43T139 0 96 17 78 60z"/><path id="d" d="M109 429q-27 0-43 18t-16 44q0 71 53 123t132 52q91 0 152-56t62-145q0-43-20-82t-48-68-80-74q-36-31-100-92l-59-56 76-1q157 0 167 5 7 2 24 89v3h40v-3q-1-3-13-91T421 3V0H50v31q0 7 6 15t30 35q29 32 50 56 9 10 34 37t34 37 29 33 28 34 23 30 21 32 15 29 13 32 7 30 3 33q0 63-34 109t-97 46q-33 0-58-17t-35-33-10-19q0-1 5-1 18 0 37-14t19-46q0-25-16-42t-45-18z"/><path id="e" d="M56 347q0 13 14 20h637q15-8 15-20 0-11-14-19l-318-1H72q-16 5-16 20zm0-194q0 15 16 20h636q14-10 14-20 0-13-15-20H70q-14 7-14 20z"/><path id="f" d="M94 250q0 69 10 131t23 107 37 88 38 67 42 52 33 34 25 21h17q14 0 14-9 0-3-17-21t-41-53-49-86-42-138-17-193 17-192 41-139 49-86 42-53 17-21q0-9-15-9h-16l-28 24q-94 85-137 212T94 250z"/><path id="g" d="M33 157q0 101 76 192t171 92q51 0 90-49 16 30 46 30 13 0 23-8t10-20q0-13-37-160T374 68q0-25 7-33t21-9q9 1 20 9 21 20 41 96 6 20 10 21 2 1 10 1h4q19 0 19-9 0-6-5-27t-20-54-32-50Q436 0 417-8q-8-2-24-2-34 0-57 15t-30 31l-6 15q-1 1-4-1l-4-4q-59-56-120-56-55 0-97 40T33 157zm318 171q0 6-5 22t-23 35-46 20q-35 0-67-31t-50-81q-29-79-41-164v-11q0-8-1-12 0-45 18-62t43-18q38 0 75 33t44 51q2 4 27 107t26 111z"/><path id="h" d="M39 168q0 57 19 104t49 78 67 52 70 31 63 9h3q45 0 78-22t33-65q0-90-111-118-49-13-134-14-37 0-38-2 0-2-6-35t-7-58q0-47 21-74t63-28 93 19 92 66q9 10 12 10 4 0 13-9t10-14-9-16-30-27-46-31-63-25-76-10q-79 0-122 53T39 168zm334 185q-6 52-68 52-33 0-61-14t-45-34-29-41-16-36-5-19q0-1 20-1 113 0 158 24t46 69z"/><path id="i" d="M84 237v13l14 20h581q15-8 15-20t-15-20H98q-14 7-14 20z"/><path id="j" d="M73 647q0 10 4 23t12 13q1 0 72 5t73 6q12 0 12-9t-34-143q-8-34-17-70t-15-54l-4-19q0-3 6 3 49 40 101 40 62 0 100-46t39-116q0-111-79-201T173-11q-50 0-91 38T40 150v9q0 21 8 58t49 197q50 197 50 209t-38 14H83q-3 0-7 3t-3 7zm263-322v6q0 74-61 74-17 0-35-8t-33-21-26-24-18-22l-6-8-21-86q-22-86-22-122 0-48 24-72 16-16 40-16 33 0 67 32 25 23 40 56t33 105q18 72 18 106z"/><path id="k" d="M118-162q2 0 6-2t11-3 12-1q13 0 24 13t16 29q10 27 34 153t46 240 22 115v3h-47q-47 0-50 2-4 3-4 10l7 28q2 5 8 5t47 1q48 0 48 1 0 2 9 50t12 58q37 165 146 165 37-2 61-22t24-53q0-36-21-52t-42-17q-44 0-44 42 0 19 11 33t24 21l9 5q-16 6-30 6-12 0-23-10t-15-28q-7-29-16-78t-16-83-7-36q0-2 55-2 45 0 52-1t11-6q1-4-2-17t-5-16q-2-5-9-5t-54-1h-56l-23-122Q301 15 282-47q-27-85-70-126-37-32-73-32-32 0-58 19t-26 54q0 37 21 54t42 17q44 0 44-42 0-19-11-33t-24-21l-9-5z"/><path id="l" d="M34 159q0 109 86 196t186 87q56 0 88-24t33-63q0-29-19-49t-48-21q-19 0-30 10t-11 30 11 34 22 21 14 6h1q0 2-6 6t-21 8-34 4q-30 0-57-14-21-9-43-31-44-44-64-124t-21-116q0-46 26-69 22-24 58-24h4q112 0 185 85 9 10 12 10 4 0 13-9t10-14-9-15-29-28-45-30-64-25-80-11q-75 0-121 48T34 159z"/><path id="m" d="M311 43q-15-13-44-28T206 0q-63 0-101 45T66 160q0 105 77 193t171 89q47 0 87-48l3 4q2 3 5 6t9 8 13 7 16 3q14 0 23-9t10-19q0-15-57-242T363-80q-18-54-77-89t-135-36q-141 0-141 68 0 26 18 46t46 20q15 0 28-9t14-31q0-10-2-19t-7-14-8-10-7-8l-2-2h1q10-3 60-3 38 0 60 12 23 11 43 33t28 47q6 19 16 62 13 48 13 56zm73 285-4 11q-3 11-5 15t-6 14-10 14-13 11-18 9-22 3q-44 0-85-53-30-39-50-119t-20-116q0-79 62-79 56 0 110 70l8 10 53 210z"/><path id="n" d="M366 683q1 0 72 5t73 6q12 0 12-8 0-7-73-302T375 83t-1-15q0-42 28-42 9 1 20 9 21 20 41 96 6 20 10 21 2 1 10 1h8q15 0 15-8 0-5-3-16-13-50-30-81T445 8 417-8q-8-2-24-2-34 0-57 15t-30 31l-6 15q-1 1-4-1l-4-4q-59-56-120-56-55 0-97 40T33 157q0 48 20 98t48 86q47 57 94 79t85 22q56 0 84-42 5-6 5-4 1 4 27 109t28 111q0 13-7 16t-39 5h-21q-6 6-6 8t2 19q5 19 13 19zm-14-357q-23 79-75 79-35 0-67-31t-50-81q-29-79-41-164v-11q0-8-1-12 0-45 18-62t43-18q54 0 111 72l8 11 54 217z"/><path id="o" d="M137 683q1 0 72 5t73 6q12 0 12-9 0-11-36-151-38-148-38-151 0-2 7 5 61 54 130 54 54 0 87-27t34-79q0-51-38-158T402 50q1-14 5-19t15-5q28 0 52 30t39 82q3 11 6 13t16 2q20 0 20-8 0-1-4-15-16-59-51-97-34-43-81-43h-5q-47 0-68 27t-21 57q0 16 36 118t37 153q0 59-44 59h-5q-83 0-144-98l-7-13-34-135Q132 28 127 16q-13-27-44-27-14 0-24 9T48 16q0 14 73 304l74 296q0 13-7 16t-39 5h-21q-6 6-6 8t2 19q5 19 13 19z"/><path id="p" d="m60 749 4 1h22l28-24q94-85 137-212t43-264q0-68-10-131T261 12t-37-88-38-67-41-51-32-33-23-19l-4-4H63q-3 0-5 3t-3 9q1 1 11 13Q221-64 221 250T66 725q-10 12-11 13 0 8 5 11z"/><path id="q" d="M56 237v13l14 20h299v150l1 150q10 13 19 13 13 0 20-15V270h298q15-8 15-20t-15-20H409V-68q-8-14-18-14h-4q-12 0-18 14v298H70q-14 7-14 20z"/><path id="r" d="M69 609q0 28 18 44t44 16q23-2 40-17t17-43q0-30-17-45t-42-15q-25 0-42 15t-18 45zM247 0q-15 3-104 3h-37Q80 3 56 1L34 0h-8v46h16q28 0 49 3 9 4 11 11t2 42v191q0 52-2 66t-14 19q-14 7-47 7H30v23q0 23 2 23l10 1q10 1 28 2t36 2 36 2 29 3 11 1h3V62q5-10 12-12t35-4h23V0h-8z"/><path id="s" d="M98 609q0 28 18 44t44 16q23-2 40-17t17-43q0-30-17-45t-42-15q-25 0-42 15t-18 45zM28-163q30-5 36-5 60 0 71 91 2 12 2 218t-1 212q-4 18-16 24t-48 8H52v23q0 23 2 23l4 1h12q8 0 17 1t21 1 25 2q18 1 38 2t31 3 12 1h4V184q-1-220-1-243t-6-39q-16-47-58-77t-95-30q-49 0-81 26t-32 62q0 23 15 38t38 15 38-15 16-39q0-25-24-45z"/><path id="t" d="M36 46h14q39 0 47 14v64q0 19 1 43t0 50 0 55 0 57v213q0 26-1 44t0 17q-3 19-14 25t-45 9H20v23q0 23 2 23l10 1q10 1 29 2t37 2 37 2 30 3 11 1h3V463l1-230 60 54q60 54 64 60 6 9 6 17 0 19-21 21h-5v46h9q15-3 119-3 63 0 72 3h5v-46h-13q-69-5-116-44-74-63-74-67 0-1 63-93t71-102q14-19 31-26t49-7h11V0h-6q-9 3-87 3-96 0-111-3h-8v46h7q24 2 24 19 0 7-4 14-3 5-50 74t-48 69l-52-46V84q0-19 2-25t11-10q21-3 49-3h16V0h-8q-15 3-109 3T28 0h-8v46h16z"/></defs><g data-mml-node="math" stroke="currentColor" fill="currentColor" stroke-width="0"><g data-mml-node="mtable"><g data-mml-node="mtr"><g data-mml-node="mtd"><g data-mml-node="msub"><use xlink:href="#a" data-mml-node="mi" transform="matrix(1 0 0 -1 0 -610.5)"/><g data-mml-node="TeXAtom"><use xlink:href="#b" data-mml-node="mn" transform="matrix(.707 0 0 -.707 446 -460.5)"/></g></g><use xlink:href="#c" data-mml-node="mo" transform="matrix(1 0 0 -1 849.6 -610.5)"/><g data-mml-node="msub"><use xlink:href="#a" data-mml-node="mi" transform="matrix(1 0 0 -1 1294.2 -610.5)"/><g data-mml-node="TeXAtom"><use xlink:href="#d" data-mml-node="mn" transform="matrix(.707 0 0 -.707 1740.2 -460.5)"/></g></g><use xlink:href="#e" data-mml-node="mo" transform="matrix(1 0 0 -1 2421.6 -610.5)"/><use xlink:href="#f" data-mml-node="mo" transform="matrix(1 0 0 -1 3477.3 -610.5)"/><use xlink:href="#g" data-mml-node="mi" transform="matrix(1 0 0 -1 3866.3 -610.5)"/><use xlink:href="#h" data-mml-node="mi" transform="matrix(1 0 0 -1 4395.3 -610.5)"/><use xlink:href="#i" data-mml-node="mo" transform="matrix(1 0 0 -1 5083.6 -610.5)"/><use xlink:href="#j" data-mml-node="mi" transform="matrix(1 0 0 -1 6083.8 -610.5)"/><use xlink:href="#k" data-mml-node="mi" transform="matrix(1 0 0 -1 6512.8 -610.5)"/><use xlink:href="#i" data-mml-node="mo" transform="matrix(1 0 0 -1 7285 -610.5)"/><use xlink:href="#l" data-mml-node="mi" transform="matrix(1 0 0 -1 8285.2 -610.5)"/><use xlink:href="#m" data-mml-node="mi" transform="matrix(1 0 0 -1 8718.2 -610.5)"/><use xlink:href="#i" data-mml-node="mo" transform="matrix(1 0 0 -1 9417.4 -610.5)"/><use xlink:href="#n" data-mml-node="mi" transform="matrix(1 0 0 -1 10417.7 -610.5)"/><use xlink:href="#o" data-mml-node="mi" transform="matrix(1 0 0 -1 10937.7 -610.5)"/><use xlink:href="#p" data-mml-node="mo" transform="matrix(1 0 0 -1 11513.7 -610.5)"/><use xlink:href="#q" data-mml-node="mo" transform="matrix(1 0 0 -1 12124.9 -610.5)"/><use xlink:href="#f" data-mml-node="mo" transform="matrix(1 0 0 -1 13125.1 -610.5)"/><use xlink:href="#g" data-mml-node="mi" transform="matrix(1 0 0 -1 13514.1 -610.5)"/><use xlink:href="#k" data-mml-node="mi" transform="matrix(1 0 0 -1 14043.1 -610.5)"/><use xlink:href="#q" data-mml-node="mo" transform="matrix(1 0 0 -1 14815.3 -610.5)"/><use xlink:href="#j" data-mml-node="mi" transform="matrix(1 0 0 -1 15815.6 -610.5)"/><use xlink:href="#h" data-mml-node="mi" transform="matrix(1 0 0 -1 16244.6 -610.5)"/><use xlink:href="#q" data-mml-node="mo" transform="matrix(1 0 0 -1 16932.8 -610.5)"/><use xlink:href="#l" data-mml-node="mi" transform="matrix(1 0 0 -1 17933 -610.5)"/><use xlink:href="#o" data-mml-node="mi" transform="matrix(1 0 0 -1 18366 -610.5)"/><use xlink:href="#i" data-mml-node="mo" transform="matrix(1 0 0 -1 19164.2 -610.5)"/><use xlink:href="#n" data-mml-node="mi" transform="matrix(1 0 0 -1 20164.4 -610.5)"/><use xlink:href="#m" data-mml-node="mi" transform="matrix(1 0 0 -1 20684.4 -610.5)"/><use xlink:href="#p" data-mml-node="mo" transform="matrix(1 0 0 -1 21161.4 -610.5)"/><g data-mml-node="TeXAtom"><use xlink:href="#r" data-mml-node="mtext" transform="matrix(1 0 0 -1 21550.4 -610.5)"/></g><use xlink:href="#q" data-mml-node="mo" transform="matrix(1 0 0 -1 21828.4 -610.5)"/></g></g><g data-mml-node="mtr"><g data-mml-node="mtd"><use xlink:href="#f" data-mml-node="mo" transform="matrix(1 0 0 -1 3699.3 610.5)"/><use xlink:href="#g" data-mml-node="mi" transform="matrix(1 0 0 -1 4088.3 610.5)"/><use xlink:href="#m" data-mml-node="mi" transform="matrix(1 0 0 -1 4617.3 610.5)"/><use xlink:href="#i" data-mml-node="mo" transform="matrix(1 0 0 -1 5316.5 610.5)"/><use xlink:href="#j" data-mml-node="mi" transform="matrix(1 0 0 -1 6316.7 610.5)"/><use xlink:href="#o" data-mml-node="mi" transform="matrix(1 0 0 -1 6745.7 610.5)"/><use xlink:href="#q" data-mml-node="mo" transform="matrix(1 0 0 -1 7544 610.5)"/><use xlink:href="#l" data-mml-node="mi" transform="matrix(1 0 0 -1 8544.2 610.5)"/><use xlink:href="#h" data-mml-node="mi" transform="matrix(1 0 0 -1 8977.2 610.5)"/><use xlink:href="#q" data-mml-node="mo" transform="matrix(1 0 0 -1 9665.4 610.5)"/><use xlink:href="#n" data-mml-node="mi" transform="matrix(1 0 0 -1 10665.6 610.5)"/><use xlink:href="#k" data-mml-node="mi" transform="matrix(1 0 0 -1 11185.6 610.5)"/><use xlink:href="#p" data-mml-node="mo" transform="matrix(1 0 0 -1 11735.6 610.5)"/><g data-mml-node="TeXAtom"><use xlink:href="#s" data-mml-node="mtext" transform="matrix(1 0 0 -1 12124.6 610.5)"/></g><use xlink:href="#q" data-mml-node="mo" transform="matrix(1 0 0 -1 12652.9 610.5)"/><use xlink:href="#f" data-mml-node="mo" transform="matrix(1 0 0 -1 13653.1 610.5)"/><use xlink:href="#g" data-mml-node="mi" transform="matrix(1 0 0 -1 14042.1 610.5)"/><use xlink:href="#o" data-mml-node="mi" transform="matrix(1 0 0 -1 14571.1 610.5)"/><use xlink:href="#q" data-mml-node="mo" transform="matrix(1 0 0 -1 15369.3 610.5)"/><use xlink:href="#j" data-mml-node="mi" transform="matrix(1 0 0 -1 16369.5 610.5)"/><use xlink:href="#m" data-mml-node="mi" transform="matrix(1 0 0 -1 16798.5 610.5)"/><use xlink:href="#i" data-mml-node="mo" transform="matrix(1 0 0 -1 17497.7 610.5)"/><use xlink:href="#l" data-mml-node="mi" transform="matrix(1 0 0 -1 18498 610.5)"/><use xlink:href="#k" data-mml-node="mi" transform="matrix(1 0 0 -1 18931 610.5)"/><use xlink:href="#q" data-mml-node="mo" transform="matrix(1 0 0 -1 19703.2 610.5)"/><use xlink:href="#n" data-mml-node="mi" transform="matrix(1 0 0 -1 20703.4 610.5)"/><use xlink:href="#h" data-mml-node="mi" transform="matrix(1 0 0 -1 21223.4 610.5)"/><use xlink:href="#p" data-mml-node="mo" transform="matrix(1 0 0 -1 21689.4 610.5)"/><g data-mml-node="TeXAtom"><use xlink:href="#t" data-mml-node="mtext" transform="matrix(1 0 0 -1 22078.4 610.5)"/></g></g></g></g></g></svg>