<svg xmlns="http://www.w3.org/2000/svg" width="553.573" height="100.739" viewBox="0 -2692 26838.7 4884" xmlns:xlink="http://www.w3.org/1999/xlink"><defs><path id="a" d="M33 157q0 101 76 192t171 92q60 0 92-52 1 1 5 6t11 11 16 12q34 24 46 24 4 0 7-3t3-5q0-9-69-285-71-284-71-288 0-8 45-9h25q6-8 6-9t-3-18q-4-13-10-19h-13q-31 2-108 2h-88q-14 0-17-1-14 0-14 8 0 3 2 15 4 16 7 19t20 3q48 0 58 7 8 5 28 88t21 85q0 1-7-3-48-39-100-39-55 0-97 40T33 157zm319 169q-23 79-75 79-35 0-67-31t-50-81q-29-79-41-164v-11q0-8-1-12 0-45 18-62t43-18q54 0 111 72l8 11 54 217z"/><path id="b" d="M56 347q0 13 14 20h637q15-8 15-20 0-11-14-19l-318-1H72q-16 5-16 20zm0-194q0 15 16 20h636q14-10 14-20 0-13-15-20H70q-14 7-14 20z"/><path id="c" d="M319-645v1799h347v-84H403V-645h-84z"/><path id="d" d="M319-644v1799h84V-560h263v-84H319z"/><path id="e" d="M319 0v602h84V0h-84z"/><path id="f" d="M295 316q0 40-27 69t-78 29q-36 0-62-13-30-19-30-52-1-5 0-13t16-24 43-25q18-5 44-9t44-9 32-13q17-8 33-20t32-41 17-62q0-62-38-102T198-10h-8q-52 0-96 36l-8-7-9-9Q71 4 65-1L54-11H42q-3 0-9 6v137q0 21 2 25t10 5h9q12 0 16-4t5-12 7-27 19-42q35-51 97-51 97 0 97 78 0 29-18 47-20 24-83 36t-83 23q-36 17-57 46t-21 62q0 39 17 66t43 40 50 18 44 5h11q40 0 70-15l15-8 9 7q10 9 22 17h12q3 0 9-6V310l-6-6h-28q-6 6-6 12z"/><path id="g" d="M69 609q0 28 18 44t44 16q23-2 40-17t17-43q0-30-17-45t-42-15q-25 0-42 15t-18 45zM247 0q-15 3-104 3h-37Q80 3 56 1L34 0h-8v46h16q28 0 49 3 9 4 11 11t2 42v191q0 52-2 66t-14 19q-14 7-47 7H30v23q0 23 2 23l10 1q10 1 28 2t36 2 36 2 29 3 11 1h3V62q5-10 12-12t35-4h23V0h-8z"/><path id="h" d="M41 46h14q39 0 47 14v62q0 17 1 39t0 42v66q0 35-1 59v23q-3 19-14 25t-45 9H25v23q0 23 2 23l10 1q10 1 28 2t37 2q17 1 36 2t29 3 11 1h3v-40q0-38 1-38t5 5 12 15 19 18 29 19 38 16q20 5 51 5 114-4 127-113 1-7 1-139v-86q0-38 2-45t11-10q21-3 49-3h16V0h-8l-24 1q-23 1-50 1t-38 1Q319 3 310 0h-8v46h16q61 0 61 16 1 2 1 138-1 135-2 143-6 28-20 42t-24 17-26 2q-45 0-79-34-27-27-34-55t-8-83V108q0-30 1-40t3-13 9-6q21-3 49-3h16V0h-8l-23 1q-24 1-51 1t-38 1Q42 3 33 0h-8v46h16z"/><path id="j" d="M94 250q0 69 10 131t23 107 37 88 38 67 42 52 33 34 25 21h17q14 0 14-9 0-3-17-21t-41-53-49-86-42-138-17-193 17-192 41-139 49-86 42-53 17-21q0-9-15-9h-16l-28 24q-94 85-137 212T94 250z"/><path id="k" d="M52 289q7 42 54 97t116 56q35 0 64-18t43-45q42 63 101 63 37 0 64-22t28-59q0-29-14-47t-27-22-23-4q-19 0-31 11t-12 29q0 46 50 63-11 13-40 13-13 0-19-2-38-16-56-66-60-221-60-258 0-28 16-40t35-12q37 0 73 33t49 81q3 10 6 11t16 2h4q15 0 15-8 0-1-2-11-16-57-62-101T333-11q-70 0-106 63-41-62-94-62h-6q-49 0-70 26T35 71q0 32 19 52t45 20q43 0 43-42 0-20-12-35t-23-20-13-5l-3-1q0-1 6-4t16-7 19-3q36 0 62 45 9 16 23 68t28 108 16 66q5 27 5 39 0 28-15 40t-34 12q-40 0-75-32t-49-82q-2-9-5-10t-16-2H58q-6 6-6 11z"/><path id="l" d="M423 750q9 0 15-6t6-14q0-5-173-482T92-240q-7-10-17-10-7 0-13 5t-6 14q0 10 174 488t177 483q4 10 16 10z"/><path id="m" d="M109 429q-27 0-43 18t-16 44q0 71 53 123t132 52q91 0 152-56t62-145q0-43-20-82t-48-68-80-74q-36-31-100-92l-59-56 76-1q157 0 167 5 7 2 24 89v3h40v-3q-1-3-13-91T421 3V0H50v31q0 7 6 15t30 35q29 32 50 56 9 10 34 37t34 37 29 33 28 34 23 30 21 32 15 29 13 32 7 30 3 33q0 63-34 109t-97 46q-33 0-58-17t-35-33-10-19q0-1 5-1 18 0 37-14t19-46q0-25-16-42t-45-18z"/><path id="n" d="m60 749 4 1h22l28-24q94-85 137-212t43-264q0-68-10-131T261 12t-37-88-38-67-41-51-32-33-23-19l-4-4H63q-3 0-5 3t-3 9q1 1 11 13Q221-64 221 250T66 725q-10 12-11 13 0 8 5 11z"/><path id="o" d="M370 305h-21l-36 15-16 38q0 23 15 38 5 5 5 6t-10 2q-26 4-49 4-49 0-80-32-47-47-47-157 0-82 31-129 41-61 110-61 41 0 66 26t36 62q2 8 5 10t16 2h14q6-6 6-9 0-4-4-16t-16-33-29-38-48-31-69-13q-86 0-150 64T34 214q0 104 65 169t151 65 120-27 34-64q0-23-17-37z"/><path id="p" d="M28 214q0 95 65 164t157 70q90 0 155-68t66-165q0-95-64-160T250-10q-97 0-159 67T28 214zM250 30q122 0 122 163v57q0 22-1 38t-7 38-16 36-31 28-49 20q-5 1-16 1-30 0-57-12-43-22-56-61t-13-92v-20q0-96 19-135 32-61 105-61z"/><path id="q" d="M21 287q0 14 15 48t48 71 74 36q41 0 66-23t26-64q-2-19-3-21 0-3-16-46t-33-97-16-86q0-43 14-60t42-18q23 0 43 11t31 23 27 33q0 1 5 20t14 59 19 74q38 150 42 157 13 27 43 27 13 0 21-7t11-12 2-9q0-13-49-210T391-23q-28-83-97-132t-138-50q-45 0-79 22t-34 66q0 22 7 37t19 22 20 10 17 3q44 0 44-42 0-20-12-35t-23-20-13-5l-3-1q2-5 19-12t34-7h8q17 0 26 2 33 9 61 38t43 62 23 56 8 30l-6-4q-6-4-19-11T270-6q-20-5-39-5-46 0-81 22t-46 71q-1 7-1 31 0 57 35 149t35 117v14q0 3-4 7t-11 4h-4q-23 0-42-19t-30-41-17-42-8-22q-2-2-16-2H27q-6 6-6 9z"/><path id="r" d="M347 338q-10 0-53 11t-63 11q-20 0-34-4t-23-10-12-11-7-11l-2-4q-3-3-15-3-21 0-21 8 0 5 3 14 13 39 43 67t66 34q12 2 17 2 25 0 45-17t38-33 38-17q22 0 44 33t23 33q1 1 15 1h13q6-6 6-8 0-4-5-14t-14-21-17-22-14-19l-7-9q-43-51-136-135T160 106l-12-12 15-1q22 0 64-11t63-11q38 0 70 19t42 50q4 9 7 11t15 2q19 0 19-10 0-5-1-9-17-62-66-103t-98-42q-26 0-46 17t-39 34-38 17q-44 0-79-60-6-8-17-8H41q-6 6-6 9 0 15 58 86 39 45 132 130t115 108q12 16 7 16z"/><path id="s" d="M84 237v13l14 20h581q15-8 15-20t-15-20H98q-14 7-14 20z"/><path id="t" d="M56 237v13l14 20h299v150l1 150q10 13 19 13 13 0 20-15V270h298q15-8 15-20t-15-20H409V-68q-8-14-18-14h-4q-12 0-18 14v298H70q-14 7-14 20z"/><path id="u" d="M0 1070v84h347V-645h-84v1715H0z"/><path id="v" d="M263-560v1715h84V-644H0v84h263z"/><path id="w" d="M263 0v602h84V0h-84z"/></defs><g data-mml-node="math" stroke="currentColor" fill="currentColor" stroke-width="0"><use xlink:href="#a" data-mml-node="mi" transform="scale(1 -1)"/><use xlink:href="#b" data-mml-node="mo" transform="matrix(1 0 0 -1 723.8 0)"/><g data-mml-node="mrow"><g data-mml-node="mo" transform="matrix(1 0 0 -1 1779.6 0)"><use xlink:href="#c" transform="translate(104 1538)"/><use xlink:href="#d" transform="translate(104 -1548)"/><svg width="667" height="1486" y="-493" x="104" viewBox="0 371.5 667 1486"><use xlink:href="#e" transform="scale(1 3.703)"/></svg></g><g data-mml-node="mtable"><g data-mml-node="mtr"><g data-mml-node="mtd"><g data-mml-node="mi" transform="matrix(1 0 0 -1 2654.6 -1942)"><use xlink:href="#f"/><use xlink:href="#g" transform="translate(394)"/><use xlink:href="#h" transform="translate(672)"/></g><use xlink:href="#i" data-mml-node="mo" transform="matrix(1 0 0 -1 3882.6 -1942)"/><use xlink:href="#j" data-mml-node="mo" transform="matrix(1 0 0 -1 3882.6 -1942)"/><use xlink:href="#k" data-mml-node="mi" transform="matrix(1 0 0 -1 4271.6 -1942)"/><g data-mml-node="TeXAtom"><use xlink:href="#l" data-mml-node="mo" transform="matrix(1 0 0 -1 4843.6 -1942)"/></g><use xlink:href="#m" data-mml-node="mn" transform="matrix(1 0 0 -1 5343.6 -1942)"/><use xlink:href="#n" data-mml-node="mo" transform="matrix(1 0 0 -1 5843.6 -1942)"/><g data-mml-node="mi" transform="matrix(1 0 0 -1 6399.3 -1942)"><use xlink:href="#o"/><use xlink:href="#p" transform="translate(444)"/><use xlink:href="#f" transform="translate(944)"/></g><use xlink:href="#i" data-mml-node="mo" transform="matrix(1 0 0 -1 7737.3 -1942)"/><use xlink:href="#j" data-mml-node="mo" transform="matrix(1 0 0 -1 7737.3 -1942)"/><use xlink:href="#q" data-mml-node="mi" transform="matrix(1 0 0 -1 8126.3 -1942)"/><g data-mml-node="TeXAtom"><use xlink:href="#l" data-mml-node="mo" transform="matrix(1 0 0 -1 8616.3 -1942)"/></g><use xlink:href="#m" data-mml-node="mn" transform="matrix(1 0 0 -1 9116.3 -1942)"/><use xlink:href="#n" data-mml-node="mo" transform="matrix(1 0 0 -1 9616.3 -1942)"/><g data-mml-node="mi" transform="matrix(1 0 0 -1 10171.9 -1942)"><use xlink:href="#o"/><use xlink:href="#p" transform="translate(444)"/><use xlink:href="#f" transform="translate(944)"/></g><use xlink:href="#i" data-mml-node="mo" transform="matrix(1 0 0 -1 11509.9 -1942)"/><use xlink:href="#j" data-mml-node="mo" transform="matrix(1 0 0 -1 11509.9 -1942)"/><use xlink:href="#r" data-mml-node="mi" transform="matrix(1 0 0 -1 11898.9 -1942)"/><g data-mml-node="TeXAtom"><use xlink:href="#l" data-mml-node="mo" transform="matrix(1 0 0 -1 12363.9 -1942)"/></g><use xlink:href="#m" data-mml-node="mn" transform="matrix(1 0 0 -1 12863.9 -1942)"/><use xlink:href="#n" data-mml-node="mo" transform="matrix(1 0 0 -1 13363.9 -1942)"/><use xlink:href="#s" data-mml-node="mo" transform="matrix(1 0 0 -1 13975.2 -1942)"/><g data-mml-node="mi" transform="matrix(1 0 0 -1 14975.4 -1942)"><use xlink:href="#o"/><use xlink:href="#p" transform="translate(444)"/><use xlink:href="#f" transform="translate(944)"/></g><use xlink:href="#i" data-mml-node="mo" transform="matrix(1 0 0 -1 16313.4 -1942)"/><use xlink:href="#j" data-mml-node="mo" transform="matrix(1 0 0 -1 16313.4 -1942)"/><use xlink:href="#k" data-mml-node="mi" transform="matrix(1 0 0 -1 16702.4 -1942)"/><g data-mml-node="TeXAtom"><use xlink:href="#l" data-mml-node="mo" transform="matrix(1 0 0 -1 17274.4 -1942)"/></g><use xlink:href="#m" data-mml-node="mn" transform="matrix(1 0 0 -1 17774.4 -1942)"/><use xlink:href="#n" data-mml-node="mo" transform="matrix(1 0 0 -1 18274.4 -1942)"/><g data-mml-node="mi" transform="matrix(1 0 0 -1 18830 -1942)"><use xlink:href="#f"/><use xlink:href="#g" transform="translate(394)"/><use xlink:href="#h" transform="translate(672)"/></g><use xlink:href="#i" data-mml-node="mo" transform="matrix(1 0 0 -1 20058 -1942)"/><use xlink:href="#j" data-mml-node="mo" transform="matrix(1 0 0 -1 20058 -1942)"/><use xlink:href="#q" data-mml-node="mi" transform="matrix(1 0 0 -1 20447 -1942)"/><g data-mml-node="TeXAtom"><use xlink:href="#l" data-mml-node="mo" transform="matrix(1 0 0 -1 20937 -1942)"/></g><use xlink:href="#m" data-mml-node="mn" transform="matrix(1 0 0 -1 21437 -1942)"/><use xlink:href="#n" data-mml-node="mo" transform="matrix(1 0 0 -1 21937 -1942)"/><g data-mml-node="mi" transform="matrix(1 0 0 -1 22492.7 -1942)"><use xlink:href="#f"/><use xlink:href="#g" transform="translate(394)"/><use xlink:href="#h" transform="translate(672)"/></g><use xlink:href="#i" data-mml-node="mo" transform="matrix(1 0 0 -1 23720.7 -1942)"/><use xlink:href="#j" data-mml-node="mo" transform="matrix(1 0 0 -1 23720.7 -1942)"/><use xlink:href="#r" data-mml-node="mi" transform="matrix(1 0 0 -1 24109.7 -1942)"/><g data-mml-node="TeXAtom"><use xlink:href="#l" data-mml-node="mo" transform="matrix(1 0 0 -1 24574.7 -1942)"/></g><use xlink:href="#m" data-mml-node="mn" transform="matrix(1 0 0 -1 25074.7 -1942)"/><use xlink:href="#n" data-mml-node="mo" transform="matrix(1 0 0 -1 25574.7 -1942)"/></g></g><g data-mml-node="mtr"><g data-mml-node="mtd"><g data-mml-node="mi" transform="matrix(1 0 0 -1 2654.6 -647.3)"><use xlink:href="#o"/><use xlink:href="#p" transform="translate(444)"/><use xlink:href="#f" transform="translate(944)"/></g><use xlink:href="#i" data-mml-node="mo" transform="matrix(1 0 0 -1 3992.6 -647.3)"/><use xlink:href="#j" data-mml-node="mo" transform="matrix(1 0 0 -1 3992.6 -647.3)"/><use xlink:href="#k" data-mml-node="mi" transform="matrix(1 0 0 -1 4381.6 -647.3)"/><g data-mml-node="TeXAtom"><use xlink:href="#l" data-mml-node="mo" transform="matrix(1 0 0 -1 4953.6 -647.3)"/></g><use xlink:href="#m" data-mml-node="mn" transform="matrix(1 0 0 -1 5453.6 -647.3)"/><use xlink:href="#n" data-mml-node="mo" transform="matrix(1 0 0 -1 5953.6 -647.3)"/><g data-mml-node="mi" transform="matrix(1 0 0 -1 6509.3 -647.3)"><use xlink:href="#f"/><use xlink:href="#g" transform="translate(394)"/><use xlink:href="#h" transform="translate(672)"/></g><use xlink:href="#i" data-mml-node="mo" transform="matrix(1 0 0 -1 7737.3 -647.3)"/><use xlink:href="#j" data-mml-node="mo" transform="matrix(1 0 0 -1 7737.3 -647.3)"/><use xlink:href="#q" data-mml-node="mi" transform="matrix(1 0 0 -1 8126.3 -647.3)"/><g data-mml-node="TeXAtom"><use xlink:href="#l" data-mml-node="mo" transform="matrix(1 0 0 -1 8616.3 -647.3)"/></g><use xlink:href="#m" data-mml-node="mn" transform="matrix(1 0 0 -1 9116.3 -647.3)"/><use xlink:href="#n" data-mml-node="mo" transform="matrix(1 0 0 -1 9616.3 -647.3)"/><g data-mml-node="mi" transform="matrix(1 0 0 -1 10171.9 -647.3)"><use xlink:href="#o"/><use xlink:href="#p" transform="translate(444)"/><use xlink:href="#f" transform="translate(944)"/></g><use xlink:href="#i" data-mml-node="mo" transform="matrix(1 0 0 -1 11509.9 -647.3)"/><use xlink:href="#j" data-mml-node="mo" transform="matrix(1 0 0 -1 11509.9 -647.3)"/><use xlink:href="#r" data-mml-node="mi" transform="matrix(1 0 0 -1 11898.9 -647.3)"/><g data-mml-node="TeXAtom"><use xlink:href="#l" data-mml-node="mo" transform="matrix(1 0 0 -1 12363.9 -647.3)"/></g><use xlink:href="#m" data-mml-node="mn" transform="matrix(1 0 0 -1 12863.9 -647.3)"/><use xlink:href="#n" data-mml-node="mo" transform="matrix(1 0 0 -1 13363.9 -647.3)"/><use xlink:href="#t" data-mml-node="mo" transform="matrix(1 0 0 -1 13975.2 -647.3)"/><g data-mml-node="mi" transform="matrix(1 0 0 -1 14975.4 -647.3)"><use xlink:href="#f"/><use xlink:href="#g" transform="translate(394)"/><use xlink:href="#h" transform="translate(672)"/></g><use xlink:href="#i" data-mml-node="mo" transform="matrix(1 0 0 -1 16203.4 -647.3)"/><use xlink:href="#j" data-mml-node="mo" transform="matrix(1 0 0 -1 16203.4 -647.3)"/><use xlink:href="#k" data-mml-node="mi" transform="matrix(1 0 0 -1 16592.4 -647.3)"/><g data-mml-node="TeXAtom"><use xlink:href="#l" data-mml-node="mo" transform="matrix(1 0 0 -1 17164.4 -647.3)"/></g><use xlink:href="#m" data-mml-node="mn" transform="matrix(1 0 0 -1 17664.4 -647.3)"/><use xlink:href="#n" data-mml-node="mo" transform="matrix(1 0 0 -1 18164.4 -647.3)"/><g data-mml-node="mi" transform="matrix(1 0 0 -1 18720 -647.3)"><use xlink:href="#o"/><use xlink:href="#p" transform="translate(444)"/><use xlink:href="#f" transform="translate(944)"/></g><use xlink:href="#i" data-mml-node="mo" transform="matrix(1 0 0 -1 20058 -647.3)"/><use xlink:href="#j" data-mml-node="mo" transform="matrix(1 0 0 -1 20058 -647.3)"/><use xlink:href="#q" data-mml-node="mi" transform="matrix(1 0 0 -1 20447 -647.3)"/><g data-mml-node="TeXAtom"><use xlink:href="#l" data-mml-node="mo" transform="matrix(1 0 0 -1 20937 -647.3)"/></g><use xlink:href="#m" data-mml-node="mn" transform="matrix(1 0 0 -1 21437 -647.3)"/><use xlink:href="#n" data-mml-node="mo" transform="matrix(1 0 0 -1 21937 -647.3)"/><g data-mml-node="mi" transform="matrix(1 0 0 -1 22492.7 -647.3)"><use xlink:href="#f"/><use xlink:href="#g" transform="translate(394)"/><use xlink:href="#h" transform="translate(672)"/></g><use xlink:href="#i" data-mml-node="mo" transform="matrix(1 0 0 -1 23720.7 -647.3)"/><use xlink:href="#j" data-mml-node="mo" transform="matrix(1 0 0 -1 23720.7 -647.3)"/><use xlink:href="#r" data-mml-node="mi" transform="matrix(1 0 0 -1 24109.7 -647.3)"/><g data-mml-node="TeXAtom"><use xlink:href="#l" data-mml-node="mo" transform="matrix(1 0 0 -1 24574.7 -647.3)"/></g><use xlink:href="#m" data-mml-node="mn" transform="matrix(1 0 0 -1 25074.7 -647.3)"/><use xlink:href="#n" data-mml-node="mo" transform="matrix(1 0 0 -1 25574.7 -647.3)"/></g></g><g data-mml-node="mtr"><g data-mml-node="mtd"><g data-mml-node="mi" transform="matrix(1 0 0 -1 2654.6 647.3)"><use xlink:href="#o"/><use xlink:href="#p" transform="translate(444)"/><use xlink:href="#f" transform="translate(944)"/></g><use xlink:href="#i" data-mml-node="mo" transform="matrix(1 0 0 -1 3992.6 647.3)"/><use xlink:href="#j" data-mml-node="mo" transform="matrix(1 0 0 -1 3992.6 647.3)"/><use xlink:href="#k" data-mml-node="mi" transform="matrix(1 0 0 -1 4381.6 647.3)"/><g data-mml-node="TeXAtom"><use xlink:href="#l" data-mml-node="mo" transform="matrix(1 0 0 -1 4953.6 647.3)"/></g><use xlink:href="#m" data-mml-node="mn" transform="matrix(1 0 0 -1 5453.6 647.3)"/><use xlink:href="#n" data-mml-node="mo" transform="matrix(1 0 0 -1 5953.6 647.3)"/><g data-mml-node="mi" transform="matrix(1 0 0 -1 6509.3 647.3)"><use xlink:href="#o"/><use xlink:href="#p" transform="translate(444)"/><use xlink:href="#f" transform="translate(944)"/></g><use xlink:href="#i" data-mml-node="mo" transform="matrix(1 0 0 -1 7847.3 647.3)"/><use xlink:href="#j" data-mml-node="mo" transform="matrix(1 0 0 -1 7847.3 647.3)"/><use xlink:href="#q" data-mml-node="mi" transform="matrix(1 0 0 -1 8236.3 647.3)"/><g data-mml-node="TeXAtom"><use xlink:href="#l" data-mml-node="mo" transform="matrix(1 0 0 -1 8726.3 647.3)"/></g><use xlink:href="#m" data-mml-node="mn" transform="matrix(1 0 0 -1 9226.3 647.3)"/><use xlink:href="#n" data-mml-node="mo" transform="matrix(1 0 0 -1 9726.3 647.3)"/><g data-mml-node="mi" transform="matrix(1 0 0 -1 10281.9 647.3)"><use xlink:href="#f"/><use xlink:href="#g" transform="translate(394)"/><use xlink:href="#h" transform="translate(672)"/></g><use xlink:href="#i" data-mml-node="mo" transform="matrix(1 0 0 -1 11509.9 647.3)"/><use xlink:href="#j" data-mml-node="mo" transform="matrix(1 0 0 -1 11509.9 647.3)"/><use xlink:href="#r" data-mml-node="mi" transform="matrix(1 0 0 -1 11898.9 647.3)"/><g data-mml-node="TeXAtom"><use xlink:href="#l" data-mml-node="mo" transform="matrix(1 0 0 -1 12363.9 647.3)"/></g><use xlink:href="#m" data-mml-node="mn" transform="matrix(1 0 0 -1 12863.9 647.3)"/><use xlink:href="#n" data-mml-node="mo" transform="matrix(1 0 0 -1 13363.9 647.3)"/><use xlink:href="#s" data-mml-node="mo" transform="matrix(1 0 0 -1 13975.2 647.3)"/><g data-mml-node="mi" transform="matrix(1 0 0 -1 14975.4 647.3)"><use xlink:href="#f"/><use xlink:href="#g" transform="translate(394)"/><use xlink:href="#h" transform="translate(672)"/></g><use xlink:href="#i" data-mml-node="mo" transform="matrix(1 0 0 -1 16203.4 647.3)"/><use xlink:href="#j" data-mml-node="mo" transform="matrix(1 0 0 -1 16203.4 647.3)"/><use xlink:href="#k" data-mml-node="mi" transform="matrix(1 0 0 -1 16592.4 647.3)"/><g data-mml-node="TeXAtom"><use xlink:href="#l" data-mml-node="mo" transform="matrix(1 0 0 -1 17164.4 647.3)"/></g><use xlink:href="#m" data-mml-node="mn" transform="matrix(1 0 0 -1 17664.4 647.3)"/><use xlink:href="#n" data-mml-node="mo" transform="matrix(1 0 0 -1 18164.4 647.3)"/><g data-mml-node="mi" transform="matrix(1 0 0 -1 18720 647.3)"><use xlink:href="#f"/><use xlink:href="#g" transform="translate(394)"/><use xlink:href="#h" transform="translate(672)"/></g><use xlink:href="#i" data-mml-node="mo" transform="matrix(1 0 0 -1 19948 647.3)"/><use xlink:href="#j" data-mml-node="mo" transform="matrix(1 0 0 -1 19948 647.3)"/><use xlink:href="#q" data-mml-node="mi" transform="matrix(1 0 0 -1 20337 647.3)"/><g data-mml-node="TeXAtom"><use xlink:href="#l" data-mml-node="mo" transform="matrix(1 0 0 -1 20827 647.3)"/></g><use xlink:href="#m" data-mml-node="mn" transform="matrix(1 0 0 -1 21327 647.3)"/><use xlink:href="#n" data-mml-node="mo" transform="matrix(1 0 0 -1 21827 647.3)"/><g data-mml-node="mi" transform="matrix(1 0 0 -1 22382.7 647.3)"><use xlink:href="#o"/><use xlink:href="#p" transform="translate(444)"/><use xlink:href="#f" transform="translate(944)"/></g><use xlink:href="#i" data-mml-node="mo" transform="matrix(1 0 0 -1 23720.7 647.3)"/><use xlink:href="#j" data-mml-node="mo" transform="matrix(1 0 0 -1 23720.7 647.3)"/><use xlink:href="#r" data-mml-node="mi" transform="matrix(1 0 0 -1 24109.7 647.3)"/><g data-mml-node="TeXAtom"><use xlink:href="#l" data-mml-node="mo" transform="matrix(1 0 0 -1 24574.7 647.3)"/></g><use xlink:href="#m" data-mml-node="mn" transform="matrix(1 0 0 -1 25074.7 647.3)"/><use xlink:href="#n" data-mml-node="mo" transform="matrix(1 0 0 -1 25574.7 647.3)"/></g></g><g data-mml-node="mtr"><g data-mml-node="mtd"><g data-mml-node="mi" transform="matrix(1 0 0 -1 2654.6 1942)"><use xlink:href="#o"/><use xlink:href="#p" transform="translate(444)"/><use xlink:href="#f" transform="translate(944)"/></g><use xlink:href="#i" data-mml-node="mo" transform="matrix(1 0 0 -1 3992.6 1942)"/><use xlink:href="#j" data-mml-node="mo" transform="matrix(1 0 0 -1 3992.6 1942)"/><use xlink:href="#k" data-mml-node="mi" transform="matrix(1 0 0 -1 4381.6 1942)"/><g data-mml-node="TeXAtom"><use xlink:href="#l" data-mml-node="mo" transform="matrix(1 0 0 -1 4953.6 1942)"/></g><use xlink:href="#m" data-mml-node="mn" transform="matrix(1 0 0 -1 5453.6 1942)"/><use xlink:href="#n" data-mml-node="mo" transform="matrix(1 0 0 -1 5953.6 1942)"/><g data-mml-node="mi" transform="matrix(1 0 0 -1 6509.3 1942)"><use xlink:href="#o"/><use xlink:href="#p" transform="translate(444)"/><use xlink:href="#f" transform="translate(944)"/></g><use xlink:href="#i" data-mml-node="mo" transform="matrix(1 0 0 -1 7847.3 1942)"/><use xlink:href="#j" data-mml-node="mo" transform="matrix(1 0 0 -1 7847.3 1942)"/><use xlink:href="#q" data-mml-node="mi" transform="matrix(1 0 0 -1 8236.3 1942)"/><g data-mml-node="TeXAtom"><use xlink:href="#l" data-mml-node="mo" transform="matrix(1 0 0 -1 8726.3 1942)"/></g><use xlink:href="#m" data-mml-node="mn" transform="matrix(1 0 0 -1 9226.3 1942)"/><use xlink:href="#n" data-mml-node="mo" transform="matrix(1 0 0 -1 9726.3 1942)"/><g data-mml-node="mi" transform="matrix(1 0 0 -1 10281.9 1942)"><use xlink:href="#o"/><use xlink:href="#p" transform="translate(444)"/><use xlink:href="#f" transform="translate(944)"/></g><use xlink:href="#i" data-mml-node="mo" transform="matrix(1 0 0 -1 11619.9 1942)"/><use xlink:href="#j" data-mml-node="mo" transform="matrix(1 0 0 -1 11619.9 1942)"/><use xlink:href="#r" data-mml-node="mi" transform="matrix(1 0 0 -1 12008.9 1942)"/><g data-mml-node="TeXAtom"><use xlink:href="#l" data-mml-node="mo" transform="matrix(1 0 0 -1 12473.9 1942)"/></g><use xlink:href="#m" data-mml-node="mn" transform="matrix(1 0 0 -1 12973.9 1942)"/><use xlink:href="#n" data-mml-node="mo" transform="matrix(1 0 0 -1 13473.9 1942)"/><use xlink:href="#t" data-mml-node="mo" transform="matrix(1 0 0 -1 14085.2 1942)"/><g data-mml-node="mi" transform="matrix(1 0 0 -1 15085.4 1942)"><use xlink:href="#f"/><use xlink:href="#g" transform="translate(394)"/><use xlink:href="#h" transform="translate(672)"/></g><use xlink:href="#i" data-mml-node="mo" transform="matrix(1 0 0 -1 16313.4 1942)"/><use xlink:href="#j" data-mml-node="mo" transform="matrix(1 0 0 -1 16313.4 1942)"/><use xlink:href="#k" data-mml-node="mi" transform="matrix(1 0 0 -1 16702.4 1942)"/><g data-mml-node="TeXAtom"><use xlink:href="#l" data-mml-node="mo" transform="matrix(1 0 0 -1 17274.4 1942)"/></g><use xlink:href="#m" data-mml-node="mn" transform="matrix(1 0 0 -1 17774.4 1942)"/><use xlink:href="#n" data-mml-node="mo" transform="matrix(1 0 0 -1 18274.4 1942)"/><g data-mml-node="mi" transform="matrix(1 0 0 -1 18830 1942)"><use xlink:href="#f"/><use xlink:href="#g" transform="translate(394)"/><use xlink:href="#h" transform="translate(672)"/></g><use xlink:href="#i" data-mml-node="mo" transform="matrix(1 0 0 -1 20058 1942)"/><use xlink:href="#j" data-mml-node="mo" transform="matrix(1 0 0 -1 20058 1942)"/><use xlink:href="#q" data-mml-node="mi" transform="matrix(1 0 0 -1 20447 1942)"/><g data-mml-node="TeXAtom"><use xlink:href="#l" data-mml-node="mo" transform="matrix(1 0 0 -1 20937 1942)"/></g><use xlink:href="#m" data-mml-node="mn" transform="matrix(1 0 0 -1 21437 1942)"/><use xlink:href="#n" data-mml-node="mo" transform="matrix(1 0 0 -1 21937 1942)"/><g data-mml-node="mi" transform="matrix(1 0 0 -1 22492.7 1942)"><use xlink:href="#f"/><use xlink:href="#g" transform="translate(394)"/><use xlink:href="#h" transform="translate(672)"/></g><use xlink:href="#i" data-mml-node="mo" transform="matrix(1 0 0 -1 23720.7 1942)"/><use xlink:href="#j" data-mml-node="mo" transform="matrix(1 0 0 -1 23720.7 1942)"/><use xlink:href="#r" data-mml-node="mi" transform="matrix(1 0 0 -1 24109.7 1942)"/><g data-mml-node="TeXAtom"><use xlink:href="#l" data-mml-node="mo" transform="matrix(1 0 0 -1 24574.7 1942)"/></g><use xlink:href="#m" data-mml-node="mn" transform="matrix(1 0 0 -1 25074.7 1942)"/><use xlink:href="#n" data-mml-node="mo" transform="matrix(1 0 0 -1 25574.7 1942)"/></g></g></g><g data-mml-node="mo" transform="matrix(1 0 0 -1 25963.7 0)"><use xlink:href="#u" transform="translate(104 1538)"/><use xlink:href="#v" transform="translate(104 -1548)"/><svg width="667" height="1486" y="-493" x="104" viewBox="0 371.5 667 1486"><use xlink:href="#w" transform="scale(1 3.703)"/></svg></g></g></g></svg>