<svg xmlns="http://www.w3.org/2000/svg" width="285.561" height="20.157" viewBox="0 -683 13844.6 977.2" xmlns:xlink="http://www.w3.org/1999/xlink"><defs><path id="a" d="M72 1Q58 1 58 11q0 22 8 30 2 5 21 5 63 4 81 38 4 7 70 272t66 270v3l-1 2q-6 6-61 6h-18q-6 5-6 8t2 19q4 13 10 19h164q23 0 28-1t7-6l51-549 22 36q21 36 58 99t82 138q159 268 163 276l12 7h186q7-5 7-11 0-22-13-35h-18q-64 0-73-14-3-5-72-283T764 57q0-7 7-8t46-3h28q6-8 6-9t-3-18q-3-12-10-19h-14q-35 2-123 2h-98q-15 0-19-1-15 0-15 10 0 2 2 14 5 17 10 20l5 1h25q35 1 46 4t17 12l139 554-179-303Q453 7 452 7q-6-7-24-7-19 0-21 6-2 4-28 298t-28 300l-66-256Q220 83 220 82q0-17 13-25t46-11h16q6-8 6-9t-3-18q-3-12-10-19h-13q-31 2-104 2H88Q75 2 72 1z"/><path id="b" d="M667 637q-10 0-13 2t-4 11q0 20 13 33h12q29-2 97-2 21 0 46 1t29 1q21 0 21-11 0-2-3-14t-5-15q-3-6-12-6-63 0-99-50L394-15q-7-7-28-7-20 0-24 6-1 3-29 319-28 319-28 320-2 8-12 11t-44 3q-24 0-24 11 0 6 3 18t9 16q2 1 13 1 46-3 99-3 115 0 127 3h10q6-6 6-9t-2-18q-4-13-10-19h-12q-64 0-64-22 1-3 22-244t21-245q0-1 68 114t137 233 72 123q3 8 3 13 0 24-40 28z"/><path id="c" d="M62 0q-7 7-7 11 0 16 7 30 4 5 34 5 36 1 47 4t17 12q2 4 71 282t70 282q0 1-1 3v2q-6 6-61 6h-18q-6 5-6 8t2 19q4 13 10 19h275q76 0 113-8t69-39q45-41 45-105 0-69-58-135t-147-88q-25-6-120-7h-86l-30-119Q258 63 258 55t52-9q31 0 33-6 2-3-1-19-5-18-9-20-3-1-12-1h-20q-16 0-46 1t-65 1Q97 2 72 0H62zm564 555v7q0 58-74 73-6 1-71 2h-31q-16 0-27-1t-11 0q-11-1-14-9-2-5-37-143l-17-68q-9-36-14-54l-5-18q0-2 65-2h37q96 0 140 44 29 29 44 87t15 82z"/><path id="d" d="M56 347q0 13 14 20h637q15-8 15-20 0-11-14-19l-318-1H72q-16 5-16 20zm0-194q0 15 16 20h636q14-10 14-20 0-13-15-20H70q-14 7-14 20z"/><path id="e" d="M289 629q0 6-57 8-24 0-31 1t-7 10q0 1 2 11 1 3 2 7t1 5 2 5 2 3 4 2 5 2 8 0 12 1h30q24 0 45-1h91q12 0 16-5 1-4 37-282l36-279 23 37q24 36 64 100t88 140q175 279 177 281l3 3q2 2 4 3l6 2h136q23 0 29 1 34 0 34-11 0-5-3-17t-3-13q-4-6-37-6-40-1-51-3t-18-11q-3-5-72-283T797 59q0-4 1-5t7-4 17-2 33-2h31q6-9 6-11 0-16-7-30-5-5-16-5-5 0-41 1t-92 1h-92q-31 0-35-1-17 0-17 10 0 2 2 14 4 16 8 18t23 3q27 0 60 3 14 3 19 12 2 4 38 146t71 283 35 141L654 322Q458 10 453 5l-4-2q-5-3-16-3-15 0-18 7-2 4-41 310l-39 307-68-270Q200 88 200 79q6-33 72-33h10q6-5 7-9t-3-18q-4-16-8-18-4-1-11-1h-12q-10 0-34 1t-64 1q-30 0-62-1T58 0Q43 0 39 2t-4 9q0 2 3 14t5 15q2 6 22 6 70 0 89 40 4 6 69 268t66 275z"/><path id="f" d="M81 278q-6 6-6 9 18 92 56 130 23 25 58 25 33-2 54-19t29-41l8 8q55 52 109 52 57 0 93-44t36-114q0-72-38-147T375 19q-54-29-84-29h-13q-41 0-74 38l-2 4-21-83q-21-84-21-88 0-8 45-9h25q6-7 6-9t-3-18q-3-12-6-15t-13-4h-12q-9 0-33 1t-61 1q-68 0-87-2h-8q-7 7-7 11t3 16q4 14 7 16t23 3q34 1 39 12 4 8 61 240 60 233 60 243 3 15 3 25 0 34-20 34-13 0-23-15-14-17-27-63t-15-48-19-2H81zm140-167q13-85 65-85 21 0 50 21t49 69q13 31 31 101t19 115q0 22-2 29-13 44-50 44-50 0-104-79l-6-9-52-206z"/><path id="g" d="M81 278q-6 6-6 11 2 12 14 50 33 103 94 103 36 0 58-17t30-41l12 12q44 46 101 46 40 0 70-21t30-59q0-35-20-50t-40-16q-17 0-28 9t-11 26q0 21 9 34t20 19 10 6q-15 15-46 15-56 0-102-90l-8-15-34-139Q200 25 196 16q-14-27-44-27t-32 29q0 5 39 163 40 162 40 165 3 14 3 26 0 33-20 33-18 0-32-28t-22-61-11-36q-2-2-19-2H81z"/><path id="h" d="M103 155q0 111 82 199t181 88q69 0 110-48t41-119q0-106-81-196T255-11q-61 0-106 43t-46 123zm84-36q0-52 22-72t51-21q30 0 61 21 33 21 59 66t46 147q6 31 6 55 0 46-24 70-20 20-50 20-39 0-75-31t-56-80q-10-23-25-81t-15-94z"/><path id="i" d="M266 600q0 22 17 39t39 17q18 0 30-11t12-29q0-20-17-38t-42-18q-14 0-26 9t-13 31zM75 287q0 6 11 29t31 53 51 51 68 22q46 0 68-27t23-57v-26l-49-198q-9-36-18-74T246 3t-10-39-9-30-7-19-7-16-9-13q-23-36-65-63t-93-27q-38 0-58 18t-20 46q0 28 18 44t41 17q21 0 30-12t10-23q0-32-29-52 4-2 11-2 26 0 49 21t32 39 16 37q4 12 53 209t51 208q3 13 3 27 0 32-23 32-24 0-46-19t-35-41-23-44l-9-21q-2-2-19-2H81q-6 6-6 9z"/><path id="j" d="M107 166q0 64 24 117t62 86 77 51 75 21h7q6 0 9 1h3q45 0 75-24t31-63q0-85-104-116-58-16-148-16h-13q-16-59-16-98 0-42 17-70t55-28q48 0 92 23t73 59q10 12 14 12t13-10 13-14q3-5-11-20-31-36-83-61T258-10q-74 0-112 51t-39 125zm309 167v21l-15 36-41 15q-38 0-68-21t-46-48-23-48-8-27q0-1 25-1 22 1 36 2t38 4 39 9 31 16 24 26z"/><path id="k" d="M257-10q-74 0-114 47t-40 118q0 102 70 186t164 99q4 1 11 1h10q63 0 87-26t24-59q0-36-19-51t-40-16q-18 0-29 10t-11 26q0 37 34 53l10 5q-22 19-49 22-43 0-80-30t-58-81q-10-23-25-81t-15-94q0-92 76-92 36 0 67 13 31 11 56 31t38 35 16 15q4 0 15-11t11-14q0-4-8-15t-26-27-42-30-59-24-74-10z"/><path id="l" d="M94 385q-7 7-7 10 0 4 3 16t5 14q2 5 8 5t46 1h47l19 80q3 10 7 28t6 26 6 20 8 18 9 12 13 8 17 3q30 0 34-29 0-6-19-84t-21-80q0-2 45-2h46q7-7 7-11 0-22-13-35h-97L189 86q-1-6-1-25v-7q0-25 13-27 12-4 28 3 24 7 47 36t40 72q5 11 8 13t18 2h5q17 0 17-7t-4-16q-29-67-70-104t-88-37q-44 0-67 29t-24 63q0 12 18 87t37 146l18 69q0 2-45 2H94z"/><path id="m" d="M234 599q0 21 17 39t41 18q14 0 27-9t13-30q0-23-19-40t-40-17q-13 0-26 9t-13 30zM75 287q0 5 7 26t21 49 39 51 54 28h18q34 0 56-22t23-62q-1-19-4-27t-44-122Q193 72 193 46q0-20 16-20 19 0 38 17 26 28 45 93 3 12 5 14t14 3h19q3 0 7-3t3-7q0-10-10-38t-38-64-64-49q-8-2-24-2-44 0-63 25t-19 56q0 27 49 156t50 157q0 12-3 16t-15 5q-28-2-47-31t-28-62-12-33q-1-1-19-1H81q-6 6-6 9z"/><path id="n" d="M449 44q0-18 16-18 17 0 37 17 26 28 45 93 3 12 5 14t14 3h19q3 0 7-3t3-7q0-10-10-38t-38-64-64-49q-8-2-24-2-38 0-60 22t-22 60q0 21 16 63 55 153 55 214 0 18-1 23-10 33-39 33-27 0-51-12t-42-33-24-31-13-20q-11-19-16-35t-31-123Q199 24 196 16q-14-27-44-27t-32 29q0 5 39 163 40 162 40 165 3 14 3 26 0 34-19 34-20 0-35-32-6-14-13-36t-11-39-7-19-19-2H81q-6 6-6 9 1 6 3 16t12 38 20 47 31 37 43 17q11 0 20-1t17-5 14-7 12-8 9-9 6-9 5-9 4-7 2-6l1-3v-4l13 13q55 55 127 55 60 0 86-32t26-72q0-48-38-160T449 44z"/><path id="o" d="M78 60q0 24 17 42t43 18q24 0 42-16t19-43q0-25-17-43T139 0 96 17 78 60z"/><path id="p" d="M387 386q0 21 19 39t39 18q21 0 34-20t13-52q0-41-19-118Q411 18 307-8q-9-2-28-2-71 0-100 36t-30 88q0 48 36 147t36 123q0 21-15 21-29 0-49-30t-29-62-12-34q-1-1-19-1H81q-6 6-6 9t4 17 14 38 26 46 39 37 52 16h8q25 0 50-20t25-64q-1-20-34-112t-33-143q0-76 59-76 43 0 75 46t62 165q7 28 7 53-1 34-21 59t-21 37z"/><path id="q" d="M591 386q0 21 19 39t39 18q21 0 34-20t13-52q0-44-24-139T621 85q-46-96-128-96-24 0-44 5T418 8t-20 16-12 14l-4 5q-35-53-89-53h-7q-65 0-100 31t-36 94q0 49 35 147t36 122q0 21-15 21-29 0-49-30t-29-62-12-34q-1-1-19-1H81q-6 6-6 9t4 17 14 38 26 46 39 37 52 16h8q25 0 50-20t25-64q-1-21-33-111t-33-138q0-82 65-82h3q37 0 66 67l5 10v16q0 3 1 14t2 17q3 17 32 132t32 122q13 27 44 27 30 0 32-29 0-6-9-44t-26-104-28-114q-2-14-2-36V92q0-26 15-46t43-20h3q22 2 40 17t32 45 25 61 21 77q10 39 10 64-1 34-21 59t-21 37z"/><path id="r" d="M81 278q-6 6-6 11 2 10 14 49 12 35 25 58t28 32 24 11 20 3h3q36-2 62-25 15-16 20-33l4-10 11 12q56 56 128 56 14 0 26-2t21-5 18-8 14-9 10-11 8-10 5-10 4-9 3-8l1-4q22 29 59 52t84 24q62 0 88-31t27-73q0-48-39-160T704 45q0-19 16-19 53 0 82 110 3 12 5 14t15 3h19q3 0 7-3t3-7q0-6-8-28t-22-52-43-51-63-22q-44 0-63 26t-20 55q0 17 36 120t36 158q0 18-1 23-10 33-39 33-27 0-51-12t-42-33-24-31-13-20q-11-19-16-35t-31-123Q455 24 452 16q-14-27-44-27t-32 29q0 8 35 149t36 147q2 11 2 32 0 26-5 38-13 21-36 21-74 0-132-100-10-16-14-32t-31-122Q199 24 196 16q-14-27-44-27t-32 29q0 8 39 164t41 165q2 14 2 25 0 33-21 33-13 0-22-14-14-17-27-63t-15-48-19-2H81z"/><path id="s" d="M418 54q0-28 20-28 28 0 56 105 6 20 10 21 3 1 12 1h10q17 0 17-9 0-1-2-15-10-38-20-64t-34-51-53-25-51 14-29 27-7 18h-1q-1-1-4-3t-5-5q-55-51-109-51-56 0-91 45t-36 112q0 109 73 202t163 93q17 0 31-4t22-10 14-13 9-10 4-4l54 216q0 13-7 16t-39 5h-21q-6 6-6 8t2 19q5 19 13 19 5 0 65 5t77 6q12 0 12-8 0-10-72-297L419 86q-1-6-1-25v-7zm-21 269q0 6-3 17t-9 27-20 27-32 11q-31 0-62-33-22-23-36-56t-32-101q-19-80-19-107v-8q0-29 7-44 13-30 44-30 32 0 65 31t44 55q3 5 28 105t25 106z"/><path id="t" d="M162 61q0-35 21-35 28 0 56 105 6 20 10 21 3 1 12 1h10q17 0 17-9 0-1-2-15-10-38-20-64t-34-51-53-25q-35 0-63 23T87 81q0 15 1 21l128 514q0 13-7 16t-39 5h-21q-6 6-6 8t2 19q5 19 13 19 5 0 65 5t77 6q12 0 12-8 0-10-72-297L164 86q-2-12-2-25z"/></defs><g data-mml-node="math" stroke="currentColor" fill="currentColor" stroke-width="0"><g data-mml-node="TeXAtom"><g data-mml-node="mtext" transform="scale(1 -1)"><use xlink:href="#a"/><use xlink:href="#b" transform="translate(897)"/><use xlink:href="#c" transform="translate(1640)"/></g></g><use xlink:href="#d" data-mml-node="mo" transform="matrix(1 0 0 -1 2595.8 0)"/><g data-mml-node="msub"><use xlink:href="#e" data-mml-node="mi" transform="matrix(1 0 0 -1 3651.6 0)"/><g data-mml-node="TeXAtom"><g data-mml-node="mtext" transform="matrix(.707 0 0 -.707 4621.6 150)"><use xlink:href="#f"/><use xlink:href="#g" transform="translate(511)"/><use xlink:href="#h" transform="translate(933)"/><use xlink:href="#i" transform="translate(1444)"/><use xlink:href="#j" transform="translate(1751)"/><use xlink:href="#k" transform="translate(2211)"/><use xlink:href="#l" transform="translate(2671)"/><use xlink:href="#m" transform="translate(3003)"/><use xlink:href="#h" transform="translate(3310)"/><use xlink:href="#n" transform="translate(3821)"/></g></g></g><use xlink:href="#o" data-mml-node="mo" transform="matrix(1 0 0 -1 7770.8 0)"/><g data-mml-node="msub"><use xlink:href="#e" data-mml-node="mi" transform="matrix(1 0 0 -1 8215.5 0)"/><g data-mml-node="TeXAtom"><g data-mml-node="mtext" transform="matrix(.707 0 0 -.707 9185.5 150)"><use xlink:href="#p"/><use xlink:href="#m" transform="translate(460)"/><use xlink:href="#j" transform="translate(767)"/><use xlink:href="#q" transform="translate(1227)"/></g></g></g><use xlink:href="#o" data-mml-node="mo" transform="matrix(1 0 0 -1 10572.6 0)"/><g data-mml-node="msub"><use xlink:href="#e" data-mml-node="mi" transform="matrix(1 0 0 -1 11017.3 0)"/><g data-mml-node="TeXAtom"><g data-mml-node="mtext" transform="matrix(.707 0 0 -.707 11987.3 150)"><use xlink:href="#r"/><use xlink:href="#h" transform="translate(818)"/><use xlink:href="#s" transform="translate(1329)"/><use xlink:href="#j" transform="translate(1840)"/><use xlink:href="#t" transform="translate(2300)"/></g></g></g></g></svg>