<svg xmlns="http://www.w3.org/2000/svg" width="290.658" height="17.34" viewBox="0 -683 14091.7 840.8" xmlns:xlink="http://www.w3.org/1999/xlink"><defs><path id="a" d="M289 629q0 6-57 8-24 0-31 1t-7 10q0 1 2 11 1 3 2 7t1 5 2 5 2 3 4 2 5 2 8 0 12 1h30q24 0 45-1h91q12 0 16-5 1-4 37-282l36-279 23 37q24 36 64 100t88 140q175 279 177 281l3 3q2 2 4 3l6 2h136q23 0 29 1 34 0 34-11 0-5-3-17t-3-13q-4-6-37-6-40-1-51-3t-18-11q-3-5-72-283T797 59q0-4 1-5t7-4 17-2 33-2h31q6-9 6-11 0-16-7-30-5-5-16-5-5 0-41 1t-92 1h-92q-31 0-35-1-17 0-17 10 0 2 2 14 4 16 8 18t23 3q27 0 60 3 14 3 19 12 2 4 38 146t71 283 35 141L654 322Q458 10 453 5l-4-2q-5-3-16-3-15 0-18 7-2 4-41 310l-39 307-68-270Q200 88 200 79q6-33 72-33h10q6-5 7-9t-3-18q-4-16-8-18-4-1-11-1h-12q-10 0-34 1t-64 1q-30 0-62-1T58 0Q43 0 39 2t-4 9q0 2 3 14t5 15q2 6 22 6 70 0 89 40 4 6 69 268t66 275z"/><path id="b" d="M81 278q-6 6-6 11 2 10 14 49 12 35 25 58t28 32 24 11 20 3h3q36-2 62-25 15-16 20-33l4-10 11 12q56 56 128 56 14 0 26-2t21-5 18-8 14-9 10-11 8-10 5-10 4-9 3-8l1-4q22 29 59 52t84 24q62 0 88-31t27-73q0-48-39-160T704 45q0-19 16-19 53 0 82 110 3 12 5 14t15 3h19q3 0 7-3t3-7q0-6-8-28t-22-52-43-51-63-22q-44 0-63 26t-20 55q0 17 36 120t36 158q0 18-1 23-10 33-39 33-27 0-51-12t-42-33-24-31-13-20q-11-19-16-35t-31-123Q455 24 452 16q-14-27-44-27t-32 29q0 8 35 149t36 147q2 11 2 32 0 26-5 38-13 21-36 21-74 0-132-100-10-16-14-32t-31-122Q199 24 196 16q-14-27-44-27t-32 29q0 8 39 164t41 165q2 14 2 25 0 33-21 33-13 0-22-14-14-17-27-63t-15-48-19-2H81z"/><path id="c" d="M103 155q0 111 82 199t181 88q69 0 110-48t41-119q0-106-81-196T255-11q-61 0-106 43t-46 123zm84-36q0-52 22-72t51-21q30 0 61 21 33 21 59 66t46 147q6 31 6 55 0 46-24 70-20 20-50 20-39 0-75-31t-56-80q-10-23-25-81t-15-94z"/><path id="d" d="M418 54q0-28 20-28 28 0 56 105 6 20 10 21 3 1 12 1h10q17 0 17-9 0-1-2-15-10-38-20-64t-34-51-53-25-51 14-29 27-7 18h-1q-1-1-4-3t-5-5q-55-51-109-51-56 0-91 45t-36 112q0 109 73 202t163 93q17 0 31-4t22-10 14-13 9-10 4-4l54 216q0 13-7 16t-39 5h-21q-6 6-6 8t2 19q5 19 13 19 5 0 65 5t77 6q12 0 12-8 0-10-72-297L419 86q-1-6-1-25v-7zm-21 269q0 6-3 17t-9 27-20 27-32 11q-31 0-62-33-22-23-36-56t-32-101q-19-80-19-107v-8q0-29 7-44 13-30 44-30 32 0 65 31t44 55q3 5 28 105t25 106z"/><path id="e" d="M107 166q0 64 24 117t62 86 77 51 75 21h7q6 0 9 1h3q45 0 75-24t31-63q0-85-104-116-58-16-148-16h-13q-16-59-16-98 0-42 17-70t55-28q48 0 92 23t73 59q10 12 14 12t13-10 13-14q3-5-11-20-31-36-83-61T258-10q-74 0-112 51t-39 125zm309 167v21l-15 36-41 15q-38 0-68-21t-46-48-23-48-8-27q0-1 25-1 22 1 36 2t38 4 39 9 31 16 24 26z"/><path id="f" d="M162 61q0-35 21-35 28 0 56 105 6 20 10 21 3 1 12 1h10q17 0 17-9 0-1-2-15-10-38-20-64t-34-51-53-25q-35 0-63 23T87 81q0 15 1 21l128 514q0 13-7 16t-39 5h-21q-6 6-6 8t2 19q5 19 13 19 5 0 65 5t77 6q12 0 12-8 0-10-72-297L164 86q-2-12-2-25z"/><path id="g" d="M56 347q0 13 14 20h637q15-8 15-20 0-11-14-19l-318-1H72q-16 5-16 20zm0-194q0 15 16 20h636q14-10 14-20 0-13-15-20H70q-14 7-14 20z"/><path id="h" d="M153 285q0 64 44 110t114 47q44 0 75-22t32-64q0-35-17-48t-36-14q-29 0-34 32 0 10 3 19t9 14 10 9 9 6l4 2q-1 3-4 7t-18 13-36 8q-43 0-62-27t-20-52 18-36 43-14 52-17 44-46q12-24 12-49 0-31-16-68t-46-63q-54-43-126-43-53 0-92 24T76 86q0 22 7 37t19 22 19 8 14 3q19 0 29-11t11-28q0-35-33-51l-10-4q-1 0-1-1 0-4 8-12t27-15 44-8q40 0 67 18t35 39 9 40q0 30-20 43t-53 19-44 13q-28 13-42 43-9 17-9 44z"/><path id="i" d="M257-10q-74 0-114 47t-40 118q0 102 70 186t164 99q4 1 11 1h10q63 0 87-26t24-59q0-36-19-51t-40-16q-18 0-29 10t-11 26q0 37 34 53l10 5q-22 19-49 22-43 0-80-30t-58-81q-10-23-25-81t-15-94q0-92 76-92 36 0 67 13 31 11 56 31t38 35 16 15q4 0 15-11t11-14q0-4-8-15t-26-27-42-30-59-24-74-10z"/><path id="j" d="M418 53q0-27 20-27 28 0 56 105 6 20 10 21 3 1 12 1h18q3 0 6-3t3-6q0-3-3-18t-11-38-20-45-32-38-43-16q-30 0-51 14t-29 27-7 18h-1q-1-1-4-3t-5-5q-55-51-109-51-56 0-91 45t-36 112q0 114 76 205t156 91q10 0 19-1t17-4 13-6 11-6 9-8 7-7 5-8 5-6q4 10 17 18t25 8q14 0 23-9t10-18q0-11-35-151T420 88q-2-8-2-30v-5zm-21 270q0 21-15 51t-49 31q-31 0-62-33-22-23-36-56t-32-101q-19-80-19-107V94q0-40 23-59 11-9 28-9 44 0 95 65 13 18 16 27t26 99q25 100 25 106z"/><path id="k" d="M78 60q0 24 17 42t43 18q24 0 42-16t19-43q0-25-17-43T139 0 96 17 78 60z"/><path id="l" d="M81 278q-6 6-6 11 2 12 14 50 33 103 94 103 36 0 58-17t30-41l12 12q44 46 101 46 40 0 70-21t30-59q0-35-20-50t-40-16q-17 0-28 9t-11 26q0 21 9 34t20 19 10 6q-15 15-46 15-56 0-102-90l-8-15-34-139Q200 25 196 16q-14-27-44-27t-32 29q0 5 39 163 40 162 40 165 3 14 3 26 0 33-20 33-18 0-32-28t-22-61-11-36q-2-2-19-2H81z"/><path id="m" d="M94 385q-7 7-7 10 0 4 3 16t5 14q2 5 8 5t46 1h47l19 80q3 10 7 28t6 26 6 20 8 18 9 12 13 8 17 3q30 0 34-29 0-6-19-84t-21-80q0-2 45-2h46q7-7 7-11 0-22-13-35h-97L189 86q-1-6-1-25v-7q0-25 13-27 12-4 28 3 24 7 47 36t40 72q5 11 8 13t18 2h5q17 0 17-7t-4-16q-29-67-70-104t-88-37q-44 0-67 29t-24 63q0 12 18 87t37 146l18 69q0 2-45 2H94z"/><path id="n" d="M449 44q0-18 16-18 17 0 37 17 26 28 45 93 3 12 5 14t14 3h19q3 0 7-3t3-7q0-10-10-38t-38-64-64-49q-8-2-24-2-38 0-60 22t-22 60q0 21 16 63 55 153 55 214 0 18-1 23-10 33-39 33-27 0-51-12t-42-33-24-31-13-20q-11-19-16-35t-31-123Q199 24 196 16q-14-27-44-27t-32 29q0 5 39 163 40 162 40 165 3 14 3 26 0 34-19 34-20 0-35-32-6-14-13-36t-11-39-7-19-19-2H81q-6 6-6 9 1 6 3 16t12 38 20 47 31 37 43 17q11 0 20-1t17-5 14-7 12-8 9-9 6-9 5-9 4-7 2-6l1-3v-4l13 13q55 55 127 55 60 0 86-32t26-72q0-48-38-160T449 44z"/></defs><g data-mml-node="math" stroke="currentColor" fill="currentColor" stroke-width="0"><g data-mml-node="msub"><use xlink:href="#a" data-mml-node="mi" transform="scale(1 -1)"/><g data-mml-node="TeXAtom"><g data-mml-node="mtext" transform="matrix(.707 0 0 -.707 970 150)"><use xlink:href="#b"/><use xlink:href="#c" transform="translate(818)"/><use xlink:href="#d" transform="translate(1329)"/><use xlink:href="#e" transform="translate(1840)"/><use xlink:href="#f" transform="translate(2300)"/></g></g></g><use xlink:href="#g" data-mml-node="mo" transform="matrix(1 0 0 -1 3105.1 0)"/><g data-mml-node="msub"><use xlink:href="#a" data-mml-node="mi" transform="matrix(1 0 0 -1 4160.9 0)"/><g data-mml-node="TeXAtom"><g data-mml-node="mtext" transform="matrix(.707 0 0 -.707 5130.9 150)"><use xlink:href="#h"/><use xlink:href="#i" transform="translate(409)"/><use xlink:href="#j" transform="translate(869)"/><use xlink:href="#f" transform="translate(1380)"/><use xlink:href="#e" transform="translate(1636)"/></g></g></g><use xlink:href="#k" data-mml-node="mo" transform="matrix(1 0 0 -1 6663 0)"/><g data-mml-node="msub"><use xlink:href="#a" data-mml-node="mi" transform="matrix(1 0 0 -1 7107.7 0)"/><g data-mml-node="TeXAtom"><g data-mml-node="mtext" transform="matrix(.707 0 0 -.707 8077.7 150)"><use xlink:href="#l"/><use xlink:href="#c" transform="translate(422)"/><use xlink:href="#m" transform="translate(933)"/><use xlink:href="#j" transform="translate(1265)"/><use xlink:href="#m" transform="translate(1776)"/><use xlink:href="#e" transform="translate(2108)"/></g></g></g><use xlink:href="#k" data-mml-node="mo" transform="matrix(1 0 0 -1 9943.5 0)"/><g data-mml-node="msub"><use xlink:href="#a" data-mml-node="mi" transform="matrix(1 0 0 -1 10388.2 0)"/><g data-mml-node="TeXAtom"><g data-mml-node="mtext" transform="matrix(.707 0 0 -.707 11358.2 150)"><use xlink:href="#m"/><use xlink:href="#l" transform="translate(332)"/><use xlink:href="#j" transform="translate(754)"/><use xlink:href="#n" transform="translate(1265)"/><use xlink:href="#h" transform="translate(1827)"/><use xlink:href="#f" transform="translate(2236)"/><use xlink:href="#j" transform="translate(2492)"/><use xlink:href="#m" transform="translate(3003)"/><use xlink:href="#e" transform="translate(3335)"/></g></g></g></g></svg>