<svg xmlns="http://www.w3.org/2000/svg" width="626.242" height="100.739" viewBox="0 -2692 30362.1 4884" xmlns:xlink="http://www.w3.org/1999/xlink"><defs><path id="a" d="M289 629q0 6-57 8-24 0-31 1t-7 10q0 1 2 11 1 3 2 7t1 5 2 5 2 3 4 2 5 2 8 0 12 1h30q24 0 45-1h91q12 0 16-5 1-4 37-282l36-279 23 37q24 36 64 100t88 140q175 279 177 281l3 3q2 2 4 3l6 2h136q23 0 29 1 34 0 34-11 0-5-3-17t-3-13q-4-6-37-6-40-1-51-3t-18-11q-3-5-72-283T797 59q0-4 1-5t7-4 17-2 33-2h31q6-9 6-11 0-16-7-30-5-5-16-5-5 0-41 1t-92 1h-92q-31 0-35-1-17 0-17 10 0 2 2 14 4 16 8 18t23 3q27 0 60 3 14 3 19 12 2 4 38 146t71 283 35 141L654 322Q458 10 453 5l-4-2q-5-3-16-3-15 0-18 7-2 4-41 310l-39 307-68-270Q200 88 200 79q6-33 72-33h10q6-5 7-9t-3-18q-4-16-8-18-4-1-11-1h-12q-10 0-34 1t-64 1q-30 0-62-1T58 0Q43 0 39 2t-4 9q0 2 3 14t5 15q2 6 22 6 70 0 89 40 4 6 69 268t66 275z"/><path id="b" d="M81 278q-6 6-6 11 2 12 14 50 33 103 94 103 36 0 58-17t30-41l12 12q44 46 101 46 40 0 70-21t30-59q0-35-20-50t-40-16q-17 0-28 9t-11 26q0 21 9 34t20 19 10 6q-15 15-46 15-56 0-102-90l-8-15-34-139Q200 25 196 16q-14-27-44-27t-32 29q0 5 39 163 40 162 40 165 3 14 3 26 0 33-20 33-18 0-32-28t-22-61-11-36q-2-2-19-2H81z"/><path id="c" d="M103 155q0 111 82 199t181 88q69 0 110-48t41-119q0-106-81-196T255-11q-61 0-106 43t-46 123zm84-36q0-52 22-72t51-21q30 0 61 21 33 21 59 66t46 147q6 31 6 55 0 46-24 70-20 20-50 20-39 0-75-31t-56-80q-10-23-25-81t-15-94z"/><path id="d" d="M94 385q-7 7-7 10 0 4 3 16t5 14q2 5 8 5t46 1h47l19 80q3 10 7 28t6 26 6 20 8 18 9 12 13 8 17 3q30 0 34-29 0-6-19-84t-21-80q0-2 45-2h46q7-7 7-11 0-22-13-35h-97L189 86q-1-6-1-25v-7q0-25 13-27 12-4 28 3 24 7 47 36t40 72q5 11 8 13t18 2h5q17 0 17-7t-4-16q-29-67-70-104t-88-37q-44 0-67 29t-24 63q0 12 18 87t37 146l18 69q0 2-45 2H94z"/><path id="e" d="M418 53q0-27 20-27 28 0 56 105 6 20 10 21 3 1 12 1h18q3 0 6-3t3-6q0-3-3-18t-11-38-20-45-32-38-43-16q-30 0-51 14t-29 27-7 18h-1q-1-1-4-3t-5-5q-55-51-109-51-56 0-91 45t-36 112q0 114 76 205t156 91q10 0 19-1t17-4 13-6 11-6 9-8 7-7 5-8 5-6q4 10 17 18t25 8q14 0 23-9t10-18q0-11-35-151T420 88q-2-8-2-30v-5zm-21 270q0 21-15 51t-49 31q-31 0-62-33-22-23-36-56t-32-101q-19-80-19-107V94q0-40 23-59 11-9 28-9 44 0 95 65 13 18 16 27t26 99q25 100 25 106z"/><path id="f" d="M107 166q0 64 24 117t62 86 77 51 75 21h7q6 0 9 1h3q45 0 75-24t31-63q0-85-104-116-58-16-148-16h-13q-16-59-16-98 0-42 17-70t55-28q48 0 92 23t73 59q10 12 14 12t13-10 13-14q3-5-11-20-31-36-83-61T258-10q-74 0-112 51t-39 125zm309 167v21l-15 36-41 15q-38 0-68-21t-46-48-23-48-8-27q0-1 25-1 22 1 36 2t38 4 39 9 31 16 24 26z"/><path id="g" d="M56 347q0 13 14 20h637q15-8 15-20 0-11-14-19l-318-1H72q-16 5-16 20zm0-194q0 15 16 20h636q14-10 14-20 0-13-15-20H70q-14 7-14 20z"/><path id="h" d="M319-645v1799h347v-84H403V-645h-84z"/><path id="i" d="M319-644v1799h84V-560h263v-84H319z"/><path id="j" d="M319 0v602h84V0h-84z"/><path id="k" d="m213 578-13-5q-14-5-40-10t-58-7H83v46h19q47 2 87 15t56 24 28 22q2 3 12 3 9 0 17-6V361l1-300q7-7 12-9t24-4 62-2h26V0h-11q-21 3-159 3-136 0-157-3H88v46h64q16 0 25 1t16 3 8 2 6 5 6 4v517z"/><path id="l" d="M84 237v13l14 20h581q15-8 15-20t-15-20H98q-14 7-14 20z"/><path id="m" d="M109 429q-27 0-43 18t-16 44q0 71 53 123t132 52q91 0 152-56t62-145q0-43-20-82t-48-68-80-74q-36-31-100-92l-59-56 76-1q157 0 167 5 7 2 24 89v3h40v-3q-1-3-13-91T421 3V0H50v31q0 7 6 15t30 35q29 32 50 56 9 10 34 37t34 37 29 33 28 34 23 30 21 32 15 29 13 32 7 30 3 33q0 63-34 109t-97 46q-33 0-58-17t-35-33-10-19q0-1 5-1 18 0 37-14t19-46q0-25-16-42t-45-18z"/><path id="n" d="M21 287q0 14 15 48t48 71 74 36q41 0 66-23t26-64q-2-19-3-21 0-3-16-46t-33-97-16-86q0-43 14-60t42-18q23 0 43 11t31 23 27 33q0 1 5 20t14 59 19 74q38 150 42 157 13 27 43 27 13 0 21-7t11-12 2-9q0-13-49-210T391-23q-28-83-97-132t-138-50q-45 0-79 22t-34 66q0 22 7 37t19 22 20 10 17 3q44 0 44-42 0-20-12-35t-23-20-13-5l-3-1q2-5 19-12t34-7h8q17 0 26 2 33 9 61 38t43 62 23 56 8 30l-6-4q-6-4-19-11T270-6q-20-5-39-5-46 0-81 22t-46 71q-1 7-1 31 0 57 35 149t35 117v14q0 3-4 7t-11 4h-4q-23 0-42-19t-30-41-17-42-8-22q-2-2-16-2H27q-6 6-6 9z"/><path id="o" d="M347 338q-10 0-53 11t-63 11q-20 0-34-4t-23-10-12-11-7-11l-2-4q-3-3-15-3-21 0-21 8 0 5 3 14 13 39 43 67t66 34q12 2 17 2 25 0 45-17t38-33 38-17q22 0 44 33t23 33q1 1 15 1h13q6-6 6-8 0-4-5-14t-14-21-17-22-14-19l-7-9q-43-51-136-135T160 106l-12-12 15-1q22 0 64-11t63-11q38 0 70 19t42 50q4 9 7 11t15 2q19 0 19-10 0-5-1-9-17-62-66-103t-98-42q-26 0-46 17t-39 34-38 17q-44 0-79-60-6-8-17-8H41q-6 6-6 9 0 15 58 86 39 45 132 130t115 108q12 16 7 16z"/><path id="p" d="M52 289q7 42 54 97t116 56q35 0 64-18t43-45q42 63 101 63 37 0 64-22t28-59q0-29-14-47t-27-22-23-4q-19 0-31 11t-12 29q0 46 50 63-11 13-40 13-13 0-19-2-38-16-56-66-60-221-60-258 0-28 16-40t35-12q37 0 73 33t49 81q3 10 6 11t16 2h4q15 0 15-8 0-1-2-11-16-57-62-101T333-11q-70 0-106 63-41-62-94-62h-6q-49 0-70 26T35 71q0 32 19 52t45 20q43 0 43-42 0-20-12-35t-23-20-13-5l-3-1q0-1 6-4t16-7 19-3q36 0 62 45 9 16 23 68t28 108 16 66q5 27 5 39 0 28-15 40t-34 12q-40 0-75-32t-49-82q-2-9-5-10t-16-2H58q-6 6-6 11z"/><path id="q" d="M580 385q0 21 19 39t42 19q18 0 33-18t16-57q0-29-19-115-15-56-27-92t-35-81-55-68-72-23q-44 0-78 16t-49 43q-1-1-3-4-41-55-100-55-26 0-50 6t-47 19-37 39-14 63q0 54 34 146t35 117v14q0 3-4 7t-11 4h-4q-23 0-42-19t-30-41-17-42-8-22q-2-2-16-2H27q-6 6-6 9 0 6 8 28t23 51 44 52 65 23q43 0 66-25t23-58q0-18-33-108t-33-139q0-46 21-65t53-20q43 0 76 61l5 9v32q0 6 1 8t1 7 1 9 3 13 3 17 6 24 8 32 11 43q29 114 33 123 13 27 43 27 19 0 26-10t8-19q0-13-29-128t-32-132q-2-11-2-35v-7q0-15 3-29t19-29 45-16q71 0 113 122 9 23 20 65t12 60q0 33-13 52t-26 32-13 28z"/><path id="r" d="M56 237v13l14 20h299v150l1 150q10 13 19 13 13 0 20-15V270h298q15-8 15-20t-15-20H409V-68q-8-14-18-14h-4q-12 0-18 14v298H70q-14 7-14 20z"/><path id="s" d="M96 585q56 81 153 81 48 0 96-26t78-92q37-83 37-228 0-155-43-237-20-42-55-67t-61-31-51-7q-26 0-52 6t-61 32-55 67q-43 82-43 237 0 174 57 265zm225 12q-30 32-71 32-42 0-72-32-25-26-33-72t-8-192q0-158 8-208t36-79q28-30 69-30 40 0 68 30 29 30 36 84t8 203q0 145-8 191t-33 73z"/><path id="t" d="M0 1070v84h347V-645h-84v1715H0z"/><path id="u" d="M263-560v1715h84V-644H0v84h263z"/><path id="v" d="M263 0v602h84V0h-84z"/></defs><g data-mml-node="math" stroke="currentColor" fill="currentColor" stroke-width="0"><g data-mml-node="msub"><use xlink:href="#a" data-mml-node="mi" transform="scale(1 -1)"/><g data-mml-node="TeXAtom"><g data-mml-node="mtext" transform="matrix(.707 0 0 -.707 970 150)"><use xlink:href="#b"/><use xlink:href="#c" transform="translate(422)"/><use xlink:href="#d" transform="translate(933)"/><use xlink:href="#e" transform="translate(1265)"/><use xlink:href="#d" transform="translate(1776)"/><use xlink:href="#f" transform="translate(2108)"/></g></g></g><use xlink:href="#g" data-mml-node="mo" transform="matrix(1 0 0 -1 3113.6 0)"/><g data-mml-node="mrow"><g data-mml-node="mo" transform="matrix(1 0 0 -1 4169.4 0)"><use xlink:href="#h" transform="translate(104 1538)"/><use xlink:href="#i" transform="translate(104 -1548)"/><svg width="667" height="1486" y="-493" x="104" viewBox="0 371.5 667 1486"><use xlink:href="#j" transform="scale(1 3.703)"/></svg></g><g data-mml-node="mtable"><g data-mml-node="mtr"><g data-mml-node="mtd"><use xlink:href="#k" data-mml-node="mn" transform="matrix(1 0 0 -1 5044.4 -1942)"/><use xlink:href="#l" data-mml-node="mo" transform="matrix(1 0 0 -1 5766.6 -1942)"/><use xlink:href="#m" data-mml-node="mn" transform="matrix(1 0 0 -1 6766.8 -1942)"/><use xlink:href="#n" data-mml-node="mi" transform="matrix(1 0 0 -1 7266.8 -1942)"/><use xlink:href="#n" data-mml-node="mi" transform="matrix(1 0 0 -1 7756.8 -1942)"/><use xlink:href="#l" data-mml-node="mo" transform="matrix(1 0 0 -1 8469.1 -1942)"/><use xlink:href="#m" data-mml-node="mn" transform="matrix(1 0 0 -1 9469.3 -1942)"/><use xlink:href="#o" data-mml-node="mi" transform="matrix(1 0 0 -1 9969.3 -1942)"/><use xlink:href="#o" data-mml-node="mi" transform="matrix(1 0 0 -1 10434.3 -1942)"/></g><g data-mml-node="mtd"><use xlink:href="#m" data-mml-node="mn" transform="matrix(1 0 0 -1 13676 -1942)"/><use xlink:href="#p" data-mml-node="mi" transform="matrix(1 0 0 -1 14176 -1942)"/><use xlink:href="#n" data-mml-node="mi" transform="matrix(1 0 0 -1 14748 -1942)"/><use xlink:href="#l" data-mml-node="mo" transform="matrix(1 0 0 -1 15460.2 -1942)"/><use xlink:href="#m" data-mml-node="mn" transform="matrix(1 0 0 -1 16460.4 -1942)"/><use xlink:href="#o" data-mml-node="mi" transform="matrix(1 0 0 -1 16960.4 -1942)"/><use xlink:href="#q" data-mml-node="mi" transform="matrix(1 0 0 -1 17425.4 -1942)"/></g><g data-mml-node="mtd"><use xlink:href="#m" data-mml-node="mn" transform="matrix(1 0 0 -1 21719.9 -1942)"/><use xlink:href="#p" data-mml-node="mi" transform="matrix(1 0 0 -1 22219.9 -1942)"/><use xlink:href="#o" data-mml-node="mi" transform="matrix(1 0 0 -1 22791.9 -1942)"/><use xlink:href="#r" data-mml-node="mo" transform="matrix(1 0 0 -1 23479.1 -1942)"/><use xlink:href="#m" data-mml-node="mn" transform="matrix(1 0 0 -1 24479.3 -1942)"/><use xlink:href="#n" data-mml-node="mi" transform="matrix(1 0 0 -1 24979.3 -1942)"/><use xlink:href="#q" data-mml-node="mi" transform="matrix(1 0 0 -1 25469.3 -1942)"/></g><g data-mml-node="mtd"><use xlink:href="#s" data-mml-node="mn" transform="matrix(1 0 0 -1 28987.1 -1942)"/></g></g><g data-mml-node="mtr"><g data-mml-node="mtd"><use xlink:href="#m" data-mml-node="mn" transform="matrix(1 0 0 -1 5739.1 -647.3)"/><use xlink:href="#p" data-mml-node="mi" transform="matrix(1 0 0 -1 6239.1 -647.3)"/><use xlink:href="#n" data-mml-node="mi" transform="matrix(1 0 0 -1 6811.1 -647.3)"/><use xlink:href="#r" data-mml-node="mo" transform="matrix(1 0 0 -1 7523.3 -647.3)"/><use xlink:href="#m" data-mml-node="mn" transform="matrix(1 0 0 -1 8523.5 -647.3)"/><use xlink:href="#o" data-mml-node="mi" transform="matrix(1 0 0 -1 9023.5 -647.3)"/><use xlink:href="#q" data-mml-node="mi" transform="matrix(1 0 0 -1 9488.5 -647.3)"/></g><g data-mml-node="mtd"><use xlink:href="#k" data-mml-node="mn" transform="matrix(1 0 0 -1 12899.3 -647.3)"/><use xlink:href="#l" data-mml-node="mo" transform="matrix(1 0 0 -1 13621.5 -647.3)"/><use xlink:href="#m" data-mml-node="mn" transform="matrix(1 0 0 -1 14621.7 -647.3)"/><use xlink:href="#p" data-mml-node="mi" transform="matrix(1 0 0 -1 15121.7 -647.3)"/><use xlink:href="#p" data-mml-node="mi" transform="matrix(1 0 0 -1 15693.7 -647.3)"/><use xlink:href="#l" data-mml-node="mo" transform="matrix(1 0 0 -1 16488 -647.3)"/><use xlink:href="#m" data-mml-node="mn" transform="matrix(1 0 0 -1 17488.2 -647.3)"/><use xlink:href="#o" data-mml-node="mi" transform="matrix(1 0 0 -1 17988.2 -647.3)"/><use xlink:href="#o" data-mml-node="mi" transform="matrix(1 0 0 -1 18453.2 -647.3)"/></g><g data-mml-node="mtd"><use xlink:href="#m" data-mml-node="mn" transform="matrix(1 0 0 -1 21719.9 -647.3)"/><use xlink:href="#n" data-mml-node="mi" transform="matrix(1 0 0 -1 22219.9 -647.3)"/><use xlink:href="#o" data-mml-node="mi" transform="matrix(1 0 0 -1 22709.9 -647.3)"/><use xlink:href="#l" data-mml-node="mo" transform="matrix(1 0 0 -1 23397.1 -647.3)"/><use xlink:href="#m" data-mml-node="mn" transform="matrix(1 0 0 -1 24397.3 -647.3)"/><use xlink:href="#p" data-mml-node="mi" transform="matrix(1 0 0 -1 24897.3 -647.3)"/><use xlink:href="#q" data-mml-node="mi" transform="matrix(1 0 0 -1 25469.3 -647.3)"/></g><g data-mml-node="mtd"><use xlink:href="#s" data-mml-node="mn" transform="matrix(1 0 0 -1 28987.1 -647.3)"/></g></g><g data-mml-node="mtr"><g data-mml-node="mtd"><use xlink:href="#m" data-mml-node="mn" transform="matrix(1 0 0 -1 5739.1 647.3)"/><use xlink:href="#p" data-mml-node="mi" transform="matrix(1 0 0 -1 6239.1 647.3)"/><use xlink:href="#o" data-mml-node="mi" transform="matrix(1 0 0 -1 6811.1 647.3)"/><use xlink:href="#l" data-mml-node="mo" transform="matrix(1 0 0 -1 7498.3 647.3)"/><use xlink:href="#m" data-mml-node="mn" transform="matrix(1 0 0 -1 8498.5 647.3)"/><use xlink:href="#n" data-mml-node="mi" transform="matrix(1 0 0 -1 8998.5 647.3)"/><use xlink:href="#q" data-mml-node="mi" transform="matrix(1 0 0 -1 9488.5 647.3)"/></g><g data-mml-node="mtd"><use xlink:href="#m" data-mml-node="mn" transform="matrix(1 0 0 -1 13676 647.3)"/><use xlink:href="#n" data-mml-node="mi" transform="matrix(1 0 0 -1 14176 647.3)"/><use xlink:href="#o" data-mml-node="mi" transform="matrix(1 0 0 -1 14666 647.3)"/><use xlink:href="#r" data-mml-node="mo" transform="matrix(1 0 0 -1 15353.2 647.3)"/><use xlink:href="#m" data-mml-node="mn" transform="matrix(1 0 0 -1 16353.4 647.3)"/><use xlink:href="#p" data-mml-node="mi" transform="matrix(1 0 0 -1 16853.4 647.3)"/><use xlink:href="#q" data-mml-node="mi" transform="matrix(1 0 0 -1 17425.4 647.3)"/></g><g data-mml-node="mtd"><use xlink:href="#k" data-mml-node="mn" transform="matrix(1 0 0 -1 20918.2 647.3)"/><use xlink:href="#l" data-mml-node="mo" transform="matrix(1 0 0 -1 21640.4 647.3)"/><use xlink:href="#m" data-mml-node="mn" transform="matrix(1 0 0 -1 22640.6 647.3)"/><use xlink:href="#p" data-mml-node="mi" transform="matrix(1 0 0 -1 23140.6 647.3)"/><use xlink:href="#p" data-mml-node="mi" transform="matrix(1 0 0 -1 23712.6 647.3)"/><use xlink:href="#l" data-mml-node="mo" transform="matrix(1 0 0 -1 24506.9 647.3)"/><use xlink:href="#m" data-mml-node="mn" transform="matrix(1 0 0 -1 25507.1 647.3)"/><use xlink:href="#n" data-mml-node="mi" transform="matrix(1 0 0 -1 26007.1 647.3)"/><use xlink:href="#n" data-mml-node="mi" transform="matrix(1 0 0 -1 26497.1 647.3)"/></g><g data-mml-node="mtd"><use xlink:href="#s" data-mml-node="mn" transform="matrix(1 0 0 -1 28987.1 647.3)"/></g></g><g data-mml-node="mtr"><g data-mml-node="mtd"><use xlink:href="#s" data-mml-node="mn" transform="matrix(1 0 0 -1 7721.8 1942)"/></g><g data-mml-node="mtd"><use xlink:href="#s" data-mml-node="mn" transform="matrix(1 0 0 -1 15658.7 1942)"/></g><g data-mml-node="mtd"><use xlink:href="#s" data-mml-node="mn" transform="matrix(1 0 0 -1 23702.6 1942)"/></g><g data-mml-node="mtd"><use xlink:href="#k" data-mml-node="mn" transform="matrix(1 0 0 -1 28987.1 1942)"/></g></g></g><g data-mml-node="mo" transform="matrix(1 0 0 -1 29487.1 0)"><use xlink:href="#t" transform="translate(104 1538)"/><use xlink:href="#u" transform="translate(104 -1548)"/><svg width="667" height="1486" y="-493" x="104" viewBox="0 371.5 667 1486"><use xlink:href="#v" transform="scale(1 3.703)"/></svg></g></g></g></svg>