<svg xmlns="http://www.w3.org/2000/svg" width="105.908" height="49.731" viewBox="0 -1367.8 5134.8 2411.2" xmlns:xlink="http://www.w3.org/1999/xlink"><defs><path id="a" d="M33 157q0 101 76 192t171 92q60 0 92-52 1 1 5 6t11 11 16 12q34 24 46 24 4 0 7-3t3-5q0-9-69-285-71-284-71-288 0-8 45-9h25q6-8 6-9t-3-18q-4-13-10-19h-13q-31 2-108 2h-88q-14 0-17-1-14 0-14 8 0 3 2 15 4 16 7 19t20 3q48 0 58 7 8 5 28 88t21 85q0 1-7-3-48-39-100-39-55 0-97 40T33 157zm319 169q-23 79-75 79-35 0-67-31t-50-81q-29-79-41-164v-11q0-8-1-12 0-45 18-62t43-18q54 0 111 72l8 11 54 217z"/><path id="b" d="M84 237v13l14 20h581q15-8 15-20t-15-20H98q-14 7-14 20z"/><path id="c" d="m213 578-13-5q-14-5-40-10t-58-7H83v46h19q47 2 87 15t56 24 28 22q2 3 12 3 9 0 17-6V361l1-300q7-7 12-9t24-4 62-2h26V0h-11q-21 3-159 3-136 0-157-3H88v46h64q16 0 25 1t16 3 8 2 6 5 6 4v517z"/><path id="d" d="M56 347q0 13 14 20h637q15-8 15-20 0-11-14-19l-318-1H72q-16 5-16 20zm0-194q0 15 16 20h636q14-10 14-20 0-13-15-20H70q-14 7-14 20z"/><path id="e" d="M229 286q-13 134-13 150 0 18 24 28h5q4 0 6 1 12-1 22-9t10-20q0-17-6-80t-7-70l58 42q56 41 61 44t10 3q13 0 24-10t12-27q0-13-10-23-5-3-68-33t-68-32l66-31 70-35q9-9 9-23 0-15-9-25t-24-11q-8 0-18 6t-55 40l-58 42q13-134 13-150 0-10-7-19t-26-9q-19 0-26 9t-8 19q0 17 6 80t7 70l-58-42q-56-41-61-44-4-3-10-3-13 0-24 10t-12 27v8q0 3 3 6t5 6 9 7 13 7 19 9 25 11 32 15 40 20L74 315q-9 9-9 23 0 15 9 25t24 11q8 0 18-6t55-40l58-42z"/><path id="f" d="M139-249h-2q-12 0-18 14v486l1 486q10 13 19 13 13 0 20-15v-970q-8-14-18-14h-2z"/><path id="g" d="M109 429q-27 0-43 18t-16 44q0 71 53 123t132 52q91 0 152-56t62-145q0-43-20-82t-48-68-80-74q-36-31-100-92l-59-56 76-1q157 0 167 5 7 2 24 89v3h40v-3q-1-3-13-91T421 3V0H50v31q0 7 6 15t30 35q29 32 50 56 9 10 34 37t34 37 29 33 28 34 23 30 21 32 15 29 13 32 7 30 3 33q0 63-34 109t-97 46q-33 0-58-17t-35-33-10-19q0-1 5-1 18 0 37-14t19-46q0-25-16-42t-45-18z"/></defs><g data-mml-node="math" stroke="currentColor" fill="currentColor" stroke-width="0"><g data-mml-node="msup"><use xlink:href="#a" data-mml-node="mi" transform="scale(1 -1)"/><g data-mml-node="TeXAtom"><use xlink:href="#b" data-mml-node="mo" transform="matrix(.707 0 0 -.707 446 -413)"/><use xlink:href="#c" data-mml-node="mn" transform="matrix(.707 0 0 -.707 996.046 -413)"/></g></g><use xlink:href="#d" data-mml-node="mo" transform="matrix(1 0 0 -1 1677.5 0)"/><g data-mml-node="mfrac"><g data-mml-node="msup"><use xlink:href="#a" data-mml-node="mi" transform="matrix(1 0 0 -1 3509.2 -676)"/><g data-mml-node="TeXAtom"><use xlink:href="#e" data-mml-node="mo" transform="matrix(.707 0 0 -.707 3955.2 -1039)"/></g></g><g data-mml-node="mrow"><use xlink:href="#f" data-mml-node="mo" transform="matrix(1 0 0 -1 2953.2 793.9)"/><g data-mml-node="TeXAtom"><use xlink:href="#f" data-mml-node="mo" transform="matrix(1 0 0 -1 3231.2 793.9)"/></g><use xlink:href="#a" data-mml-node="mi" transform="matrix(1 0 0 -1 3509.2 793.9)"/><g data-mml-node="TeXAtom"><use xlink:href="#f" data-mml-node="mo" transform="matrix(1 0 0 -1 3955.2 793.9)"/></g><g data-mml-node="msup"><use xlink:href="#f" data-mml-node="mo" transform="matrix(1 0 0 -1 4233.2 793.9)"/><g data-mml-node="TeXAtom"><use xlink:href="#g" data-mml-node="mn" transform="matrix(.707 0 0 -.707 4511.2 430.9)"/></g></g></g><path stroke="none" d="M2853.2-220h2161.6v-60H2853.2z"/></g></g></svg>