<svg xmlns="http://www.w3.org/2000/svg" width="159.56" height="23.384" viewBox="0 -883.9 7735.9 1133.9" xmlns:xlink="http://www.w3.org/1999/xlink"><defs><path id="a" d="M33 157q0 101 76 192t171 92q60 0 92-52 1 1 5 6t11 11 16 12q34 24 46 24 4 0 7-3t3-5q0-9-69-285-71-284-71-288 0-8 45-9h25q6-8 6-9t-3-18q-4-13-10-19h-13q-31 2-108 2h-88q-14 0-17-1-14 0-14 8 0 3 2 15 4 16 7 19t20 3q48 0 58 7 8 5 28 88t21 85q0 1-7-3-48-39-100-39-55 0-97 40T33 157zm319 169q-23 79-75 79-35 0-67-31t-50-81q-29-79-41-164v-11q0-8-1-12 0-45 18-62t43-18q54 0 111 72l8 11 54 217z"/><path id="b" d="M78 60q0 24 17 42t43 18q24 0 42-16t19-43q0-25-17-43T139 0 96 17 78 60z"/><path id="c" d="M84 237v13l14 20h581q15-8 15-20t-15-20H98q-14 7-14 20z"/><path id="d" d="m213 578-13-5q-14-5-40-10t-58-7H83v46h19q47 2 87 15t56 24 28 22q2 3 12 3 9 0 17-6V361l1-300q7-7 12-9t24-4 62-2h26V0h-11q-21 3-159 3-136 0-157-3H88v46h64q16 0 25 1t16 3 8 2 6 5 6 4v517z"/><path id="e" d="M56 347q0 13 14 20h637q15-8 15-20 0-11-14-19l-318-1H72q-16 5-16 20zm0-194q0 15 16 20h636q14-10 14-20 0-13-15-20H70q-14 7-14 20z"/><path id="f" d="M94 250q0 69 10 131t23 107 37 88 38 67 42 52 33 34 25 21h17q14 0 14-9 0-3-17-21t-41-53-49-86-42-138-17-193 17-192 41-139 49-86 42-53 17-21q0-9-15-9h-16l-28 24q-94 85-137 212T94 250z"/><path id="g" d="M96 585q56 81 153 81 48 0 96-26t78-92q37-83 37-228 0-155-43-237-20-42-55-67t-61-31-51-7q-26 0-52 6t-61 32-55 67q-43 82-43 237 0 174 57 265zm225 12q-30 32-71 32-42 0-72-32-25-26-33-72t-8-192q0-158 8-208t36-79q28-30 69-30 40 0 68 30 29 30 36 84t8 203q0 145-8 191t-33 73z"/><path id="h" d="M78 35v25l16 43 43 18q28 0 50-25t23-88q0-35-9-68t-21-57-26-41-24-27-13-9q-4 0-13 9t-9 13q0 4 11 16t25 30 26 50 16 73V9l-1-1q-2-1-5-2t-6-3-9-2-12-1q-27 0-44 17z"/><path id="i" d="m60 749 4 1h22l28-24q94-85 137-212t43-264q0-68-10-131T261 12t-37-88-38-67-41-51-32-33-23-19l-4-4H63q-3 0-5 3t-3 9q1 1 11 13Q221-64 221 250T66 725q-10 12-11 13 0 8 5 11z"/></defs><g data-mml-node="math" stroke="currentColor" fill="currentColor" stroke-width="0"><use xlink:href="#a" data-mml-node="mi" transform="scale(1 -1)"/><use xlink:href="#b" data-mml-node="mo" transform="matrix(1 0 0 -1 446 0)"/><g data-mml-node="msup"><use xlink:href="#a" data-mml-node="mi" transform="matrix(1 0 0 -1 890.7 0)"/><g data-mml-node="TeXAtom"><use xlink:href="#c" data-mml-node="mo" transform="matrix(.707 0 0 -.707 1336.7 -413)"/><use xlink:href="#d" data-mml-node="mn" transform="matrix(.707 0 0 -.707 1886.746 -413)"/></g></g><use xlink:href="#e" data-mml-node="mo" transform="matrix(1 0 0 -1 2568.1 0)"/><use xlink:href="#f" data-mml-node="mo" transform="matrix(1 0 0 -1 3623.9 0)"/><use xlink:href="#g" data-mml-node="mn" transform="matrix(1 0 0 -1 4012.9 0)"/><use xlink:href="#h" data-mml-node="mo" transform="matrix(1 0 0 -1 4512.9 0)"/><use xlink:href="#g" data-mml-node="mn" transform="matrix(1 0 0 -1 4957.6 0)"/><use xlink:href="#h" data-mml-node="mo" transform="matrix(1 0 0 -1 5457.6 0)"/><use xlink:href="#g" data-mml-node="mn" transform="matrix(1 0 0 -1 5902.2 0)"/><use xlink:href="#h" data-mml-node="mo" transform="matrix(1 0 0 -1 6402.2 0)"/><use xlink:href="#d" data-mml-node="mn" transform="matrix(1 0 0 -1 6846.9 0)"/><use xlink:href="#i" data-mml-node="mo" transform="matrix(1 0 0 -1 7346.9 0)"/></g></svg>