<svg xmlns="http://www.w3.org/2000/svg" width="103.392" height="20.622" viewBox="0 -750 5012.9 1000" xmlns:xlink="http://www.w3.org/1999/xlink"><defs><path id="a" d="M173 380q0 25-19 25-24 0-50-29t-43-89q-1-1-2-3t-1-3-2-2-3-1-4 0-8 0H27q-6 6-6 9 0 7 8 29t24 52 44 51 63 22q42 0 65-24t24-56q0-17-3-26 0-6-15-44t-31-89-18-89q0-27 5-44 13-43 63-43 37 0 69 34t50 79 29 83 11 55q0 23-8 40t-18 26-18 18-8 22q0 22 19 41t41 19q19 0 34-18t16-58q0-27-12-83t-37-125-71-119-106-51q-64 0-102 33-37 32-37 95 0 31 8 64t41 117q22 64 22 82z"/><path id="b" d="M56 347q0 13 14 20h637q15-8 15-20 0-11-14-19l-318-1H72q-16 5-16 20zm0-194q0 15 16 20h636q14-10 14-20 0-13-15-20H70q-14 7-14 20z"/><path id="c" d="M94 250q0 69 10 131t23 107 37 88 38 67 42 52 33 34 25 21h17q14 0 14-9 0-3-17-21t-41-53-49-86-42-138-17-193 17-192 41-139 49-86 42-53 17-21q0-9-15-9h-16l-28 24q-94 85-137 212T94 250z"/><path id="d" d="M52 289q7 42 54 97t116 56q35 0 64-18t43-45q42 63 101 63 37 0 64-22t28-59q0-29-14-47t-27-22-23-4q-19 0-31 11t-12 29q0 46 50 63-11 13-40 13-13 0-19-2-38-16-56-66-60-221-60-258 0-28 16-40t35-12q37 0 73 33t49 81q3 10 6 11t16 2h4q15 0 15-8 0-1-2-11-16-57-62-101T333-11q-70 0-106 63-41-62-94-62h-6q-49 0-70 26T35 71q0 32 19 52t45 20q43 0 43-42 0-20-12-35t-23-20-13-5l-3-1q0-1 6-4t16-7 19-3q36 0 62 45 9 16 23 68t28 108 16 66q5 27 5 39 0 28-15 40t-34 12q-40 0-75-32t-49-82q-2-9-5-10t-16-2H58q-6 6-6 11z"/><path id="e" d="M78 35v25l16 43 43 18q28 0 50-25t23-88q0-35-9-68t-21-57-26-41-24-27-13-9q-4 0-13 9t-9 13q0 4 11 16t25 30 26 50 16 73V9l-1-1q-2-1-5-2t-6-3-9-2-12-1q-27 0-44 17z"/><path id="f" d="M21 287q0 14 15 48t48 71 74 36q41 0 66-23t26-64q-2-19-3-21 0-3-16-46t-33-97-16-86q0-43 14-60t42-18q23 0 43 11t31 23 27 33q0 1 5 20t14 59 19 74q38 150 42 157 13 27 43 27 13 0 21-7t11-12 2-9q0-13-49-210T391-23q-28-83-97-132t-138-50q-45 0-79 22t-34 66q0 22 7 37t19 22 20 10 17 3q44 0 44-42 0-20-12-35t-23-20-13-5l-3-1q2-5 19-12t34-7h8q17 0 26 2 33 9 61 38t43 62 23 56 8 30l-6-4q-6-4-19-11T270-6q-20-5-39-5-46 0-81 22t-46 71q-1 7-1 31 0 57 35 149t35 117v14q0 3-4 7t-11 4h-4q-23 0-42-19t-30-41-17-42-8-22q-2-2-16-2H27q-6 6-6 9z"/><path id="g" d="M347 338q-10 0-53 11t-63 11q-20 0-34-4t-23-10-12-11-7-11l-2-4q-3-3-15-3-21 0-21 8 0 5 3 14 13 39 43 67t66 34q12 2 17 2 25 0 45-17t38-33 38-17q22 0 44 33t23 33q1 1 15 1h13q6-6 6-8 0-4-5-14t-14-21-17-22-14-19l-7-9q-43-51-136-135T160 106l-12-12 15-1q22 0 64-11t63-11q38 0 70 19t42 50q4 9 7 11t15 2q19 0 19-10 0-5-1-9-17-62-66-103t-98-42q-26 0-46 17t-39 34-38 17q-44 0-79-60-6-8-17-8H41q-6 6-6 9 0 15 58 86 39 45 132 130t115 108q12 16 7 16z"/><path id="h" d="m60 749 4 1h22l28-24q94-85 137-212t43-264q0-68-10-131T261 12t-37-88-38-67-41-51-32-33-23-19l-4-4H63q-3 0-5 3t-3 9q1 1 11 13Q221-64 221 250T66 725q-10 12-11 13 0 8 5 11z"/></defs><g data-mml-node="math" stroke="currentColor" fill="currentColor" stroke-width="0"><use xlink:href="#a" data-mml-node="mi" transform="scale(1 -1)"/><use xlink:href="#b" data-mml-node="mo" transform="matrix(1 0 0 -1 762.8 0)"/><use xlink:href="#c" data-mml-node="mo" transform="matrix(1 0 0 -1 1818.6 0)"/><use xlink:href="#d" data-mml-node="mi" transform="matrix(1 0 0 -1 2207.6 0)"/><use xlink:href="#e" data-mml-node="mo" transform="matrix(1 0 0 -1 2779.6 0)"/><use xlink:href="#f" data-mml-node="mi" transform="matrix(1 0 0 -1 3224.2 0)"/><use xlink:href="#e" data-mml-node="mo" transform="matrix(1 0 0 -1 3714.2 0)"/><use xlink:href="#g" data-mml-node="mi" transform="matrix(1 0 0 -1 4158.9 0)"/><use xlink:href="#h" data-mml-node="mo" transform="matrix(1 0 0 -1 4623.9 0)"/></g></svg>