<svg xmlns="http://www.w3.org/2000/svg" width="250.572" height="121.999" viewBox="0 -3207.3 12148.5 5914.6" xmlns:xlink="http://www.w3.org/1999/xlink"><defs><path id="a" d="M42 46h14q39 0 47 14v64q0 19 1 43t0 50 0 55 0 57v213q0 26-1 44t0 17q-3 19-14 25t-45 9H26v23q0 23 2 23l10 1q10 1 29 2t37 2 37 2 30 3 11 1h3V379q0-317 1-319 4-8 12-11 21-3 49-3h16V0h-8l-23 1q-23 1-49 1t-38 1-38 0-50-2L34 0h-8v46h16z"/><path id="b" d="M28 214q0 95 65 164t157 70q90 0 155-68t66-165q0-95-64-160T250-10q-97 0-159 67T28 214zM250 30q122 0 122 163v57q0 22-1 38t-7 38-16 36-31 28-49 20q-5 1-16 1-30 0-57-12-43-22-56-61t-13-92v-20q0-96 19-135 32-61 105-61z"/><path id="c" d="M329 409q44 44 100 44 30 0 43-19t13-38q0-14-9-25t-27-11q-33 0-37 30-2 14 3 21 0 1 1 3v1q-28-3-53-22-8-5-8-7 0-1 4-5t9-12 11-18 9-26 4-33q0-62-49-105t-121-44q-50 0-99 28-11-18-11-38 0-35 26-52 9-6 17-6t72-2q84-1 108-6 61-9 96-41 39-39 39-98 0-67-78-103-60-31-142-31-83 0-143 31-78 35-78 100 0 36 21 60t42 33l11 6q-36 31-36 84 0 47 29 85-44 44-44 99 0 63 50 106t121 44q51 0 95-26l11-7zm-30-66q-5 28-26 44t-52 17q-29 0-50-16t-26-45q-3-17-3-51 0-44 7-65t30-35q17-10 43-10 22 0 38 7t23 18 11 20 5 15q3 16 3 50t-3 51zM403-75q0 25-14 41t-41 23-49 9-54 2h-27q-67 0-80-6-20-9-31-28T95-74q0-10 6-23t21-30 48-28 80-12q69 0 111 28t42 64z"/><path id="e" d="M94 250q0 69 10 131t23 107 37 88 38 67 42 52 33 34 25 21h17q14 0 14-9 0-3-17-21t-41-53-49-86-42-138-17-193 17-192 41-139 49-86 42-53 17-21q0-9-15-9h-16l-28 24q-94 85-137 212T94 250z"/><path id="f" d="M33 157q0 101 76 192t171 92q60 0 92-52 1 1 5 6t11 11 16 12q34 24 46 24 4 0 7-3t3-5q0-9-69-285-71-284-71-288 0-8 45-9h25q6-8 6-9t-3-18q-4-13-10-19h-13q-31 2-108 2h-88q-14 0-17-1-14 0-14 8 0 3 2 15 4 16 7 19t20 3q48 0 58 7 8 5 28 88t21 85q0 1-7-3-48-39-100-39-55 0-97 40T33 157zm319 169q-23 79-75 79-35 0-67-31t-50-81q-29-79-41-164v-11q0-8-1-12 0-45 18-62t43-18q54 0 111 72l8 11 54 217z"/><path id="g" d="m60 749 4 1h22l28-24q94-85 137-212t43-264q0-68-10-131T261 12t-37-88-38-67-41-51-32-33-23-19l-4-4H63q-3 0-5 3t-3 9q1 1 11 13Q221-64 221 250T66 725q-10 12-11 13 0 8 5 11z"/><path id="h" d="M56 347q0 13 14 20h637q15-8 15-20 0-11-14-19l-318-1H72q-16 5-16 20zm0-194q0 15 16 20h636q14-10 14-20 0-13-15-20H70q-14 7-14 20z"/><path id="i" d="M837 1154q6-6 6-9 0-4-25-39t-65-104-86-161-93-237-80-305q-77-383-77-908 0-32-1-38t-5-7q-2-1-45-1-67 0-69 1-5 2-5 11t-1 60q2 183 13 341t43 352 85 360 142 343 211 323q2 3 5 6t4 5 2 3 3 2 3 1 5 1 6 0h24z"/><path id="j" d="M843-635q0-3-6-9h-17q-19 0-20 1-8 8-15 17-101 123-180 263T473-75t-88 291-55 302-28 291-11 284v60q0 9 5 11 2 1 70 1 43 0 45-1 4-1 5-7t1-38q0-590 100-1010t316-726q10-14 10-18z"/><path id="k" d="M413-9h-6q-5 0-19-1t-34 0q-54 0-57 1t-4 4q-2 10-2 132v173q0 302 1 305l4 4q2 1 70 1h41q5 0 5-1 4 0 4-17t1-119V127q0-136-4-136z"/><path id="l" d="M173 380q0 25-19 25-24 0-50-29t-43-89q-1-1-2-3t-1-3-2-2-3-1-4 0-8 0H27q-6 6-6 9 0 7 8 29t24 52 44 51 63 22q42 0 65-24t24-56q0-17-3-26 0-6-15-44t-31-89-18-89q0-27 5-44 13-43 63-43 37 0 69 34t50 79 29 83 11 55q0 23-8 40t-18 26-18 18-8 22q0 22 19 41t41 19q19 0 34-18t16-58q0-27-12-83t-37-125-71-119-106-51q-64 0-102 33-37 32-37 95 0 31 8 64t41 117q22 64 22 82z"/><path id="m" d="M52 289q7 42 54 97t116 56q35 0 64-18t43-45q42 63 101 63 37 0 64-22t28-59q0-29-14-47t-27-22-23-4q-19 0-31 11t-12 29q0 46 50 63-11 13-40 13-13 0-19-2-38-16-56-66-60-221-60-258 0-28 16-40t35-12q37 0 73 33t49 81q3 10 6 11t16 2h4q15 0 15-8 0-1-2-11-16-57-62-101T333-11q-70 0-106 63-41-62-94-62h-6q-49 0-70 26T35 71q0 32 19 52t45 20q43 0 43-42 0-20-12-35t-23-20-13-5l-3-1q0-1 6-4t16-7 19-3q36 0 62 45 9 16 23 68t28 108 16 66q5 27 5 39 0 28-15 40t-34 12q-40 0-75-32t-49-82q-2-9-5-10t-16-2H58q-6 6-6 11z"/><path id="n" d="M139-249h-2q-12 0-18 14v486l1 486q10 13 19 13 13 0 20-15v-970q-8-14-18-14h-2z"/><path id="o" d="M137 305h-22l-37 15-15 39q0 35 34 62t121 27q73 0 118-32t60-76q5-14 5-31t1-115v-70q0-48 5-66t21-18q15 0 20 16t5 53v36h40v-39q-1-40-3-47-9-30-35-47T400-6t-47 18-24 42v4l-2-3q-2-3-5-6t-8-9-12-11-15-12-18-11-22-8-26-6-31-3q-60 0-108 31t-48 87q0 21 7 40t27 41 48 37 78 28 110 15h14v22q0 34-6 50-22 71-97 71-18 0-34-1t-25-4-8-3q22-15 22-44 0-25-16-39zm-11-199q0-31 24-55t59-25q38 0 67 23t39 60q2 7 3 66 0 58-1 58-8 0-21-1t-45-9-58-20-46-37-21-60z"/><path id="p" d="M36 46h14q39 0 47 14v31q0 14 1 31t0 39 0 42v125l-1 23q-3 19-14 25t-45 9H20v23q0 23 2 23l10 1q10 1 28 2t36 2q16 1 35 2t29 3 11 1h3v-69q39 68 97 68h6q45 0 66-22t21-46q0-21-13-36t-38-15q-25 0-37 16t-13 34q0 9 2 16t5 12 3 5q-2 2-23-4-16-8-24-15-47-45-47-179V101q0-12 1-20t0-15v-5q1-2 3-4t5-3 5-3 7-2 7-1 9-1 9 0 10-1 10 0h31V0h-9q-18 3-127 3Q37 3 28 0h-8v46h16z"/><path id="q" d="M370 305h-21l-36 15-16 38q0 23 15 38 5 5 5 6t-10 2q-26 4-49 4-49 0-80-32-47-47-47-157 0-82 31-129 41-61 110-61 41 0 66 26t36 62q2 8 5 10t16 2h14q6-6 6-9 0-4-4-16t-16-33-29-38-48-31-69-13q-86 0-150 64T34 214q0 104 65 169t151 65 120-27 34-64q0-23-17-37z"/><path id="r" d="M295 316q0 40-27 69t-78 29q-36 0-62-13-30-19-30-52-1-5 0-13t16-24 43-25q18-5 44-9t44-9 32-13q17-8 33-20t32-41 17-62q0-62-38-102T198-10h-8q-52 0-96 36l-8-7-9-9Q71 4 65-1L54-11H42q-3 0-9 6v137q0 21 2 25t10 5h9q12 0 16-4t5-12 7-27 19-42q35-51 97-51 97 0 97 78 0 29-18 47-20 24-83 36t-83 23q-36 17-57 46t-21 62q0 39 17 66t43 40 50 18 44 5h11q40 0 70-15l15-8 9 7q10 9 22 17h12q3 0 9-6V310l-6-6h-28q-6 6-6 12z"/><path id="s" d="M580 385q0 21 19 39t42 19q18 0 33-18t16-57q0-29-19-115-15-56-27-92t-35-81-55-68-72-23q-44 0-78 16t-49 43q-1-1-3-4-41-55-100-55-26 0-50 6t-47 19-37 39-14 63q0 54 34 146t35 117v14q0 3-4 7t-11 4h-4q-23 0-42-19t-30-41-17-42-8-22q-2-2-16-2H27q-6 6-6 9 0 6 8 28t23 51 44 52 65 23q43 0 66-25t23-58q0-18-33-108t-33-139q0-46 21-65t53-20q43 0 76 61l5 9v32q0 6 1 8t1 7 1 9 3 13 3 17 6 24 8 32 11 43q29 114 33 123 13 27 43 27 19 0 26-10t8-19q0-13-29-128t-32-132q-2-11-2-35v-7q0-15 3-29t19-29 45-16q71 0 113 122 9 23 20 65t12 60q0 33-13 52t-26 32-13 28z"/><path id="t" d="M21 287q0 14 15 48t48 71 74 36q41 0 66-23t26-64q-2-19-3-21 0-3-16-46t-33-97-16-86q0-43 14-60t42-18q23 0 43 11t31 23 27 33q0 1 5 20t14 59 19 74q38 150 42 157 13 27 43 27 13 0 21-7t11-12 2-9q0-13-49-210T391-23q-28-83-97-132t-138-50q-45 0-79 22t-34 66q0 22 7 37t19 22 20 10 17 3q44 0 44-42 0-20-12-35t-23-20-13-5l-3-1q2-5 19-12t34-7h8q17 0 26 2 33 9 61 38t43 62 23 56 8 30l-6-4q-6-4-19-11T270-6q-20-5-39-5-46 0-81 22t-46 71q-1 7-1 31 0 57 35 149t35 117v14q0 3-4 7t-11 4h-4q-23 0-42-19t-30-41-17-42-8-22q-2-2-16-2H27q-6 6-6 9z"/><path id="u" d="M347 338q-10 0-53 11t-63 11q-20 0-34-4t-23-10-12-11-7-11l-2-4q-3-3-15-3-21 0-21 8 0 5 3 14 13 39 43 67t66 34q12 2 17 2 25 0 45-17t38-33 38-17q22 0 44 33t23 33q1 1 15 1h13q6-6 6-8 0-4-5-14t-14-21-17-22-14-19l-7-9q-43-51-136-135T160 106l-12-12 15-1q22 0 64-11t63-11q38 0 70 19t42 50q4 9 7 11t15 2q19 0 19-10 0-5-1-9-17-62-66-103t-98-42q-26 0-46 17t-39 34-38 17q-44 0-79-60-6-8-17-8H41q-6 6-6 9 0 15 58 86 39 45 132 130t115 108q12 16 7 16z"/><path id="v" d="M31 1143q0 11 18 11h10q13 0 16-2t14-16q101-123 180-263t132-288 88-291T544-8t28-291 11-284v-60q0-9-6-11-2-1-69-1-43 0-45 1-4 1-5 7t-1 38q0 551-86 949t-271 697q-13 22-39 61t-30 45z"/><path id="w" d="M56-644h-6q-19 0-19 9 0 3 6 13 32 43 63 95 186 299 271 697t86 949q0 42 5 45 2 1 58 1 55 0 57-1 5-2 5-11t1-60q-2-183-13-341t-43-352-85-360-142-343T89-626q-11-14-14-16t-14-2h-5z"/><path id="x" d="M579-9h-6q-5 0-19-1t-34 0q-54 0-57 1t-4 4q-2 10-2 132v173q0 302 1 305l4 4q2 1 70 1h41q5 0 5-1 4 0 4-17t1-119V127q0-136-4-136z"/></defs><g data-mml-node="math" stroke="currentColor" fill="currentColor" stroke-width="0"><g data-mml-node="mi" transform="scale(1 -1)"><use xlink:href="#a"/><use xlink:href="#b" transform="translate(278)"/><use xlink:href="#c" transform="translate(778)"/></g><use xlink:href="#d" data-mml-node="mo" transform="matrix(1 0 0 -1 1278 0)"/><use xlink:href="#e" data-mml-node="mo" transform="matrix(1 0 0 -1 1278 0)"/><use xlink:href="#f" data-mml-node="mi" transform="matrix(1 0 0 -1 1667 0)"/><use xlink:href="#g" data-mml-node="mo" transform="matrix(1 0 0 -1 2113 0)"/><use xlink:href="#h" data-mml-node="mo" transform="matrix(1 0 0 -1 2779.8 0)"/><g data-mml-node="mrow"><g data-mml-node="mo" transform="matrix(1 0 0 -1 3835.6 0)"><use xlink:href="#i" transform="translate(0 2053.3)"/><use xlink:href="#j" transform="translate(0 -2063.3)"/><svg width="875" height="2496.6" y="-998.3" viewBox="0 563.8 875 2496.6"><use xlink:href="#k" transform="scale(1 6.04)"/></svg></g><g data-mml-node="mtable"><g data-mml-node="mtr"><g data-mml-node="mtd"><g data-mml-node="mfrac"><g data-mml-node="msub"><use xlink:href="#l" data-mml-node="mi" transform="matrix(.707 0 0 -.707 5163.1 -2894.1)"/><g data-mml-node="TeXAtom"><use xlink:href="#m" data-mml-node="mi" transform="matrix(.49985 0 0 -.49985 5505.995 -2788.05)"/></g></g><g data-mml-node="mrow"><use xlink:href="#n" data-mml-node="mo" transform="matrix(.707 0 0 -.707 4930.6 -2072.5)"/><g data-mml-node="TeXAtom"><use xlink:href="#n" data-mml-node="mo" transform="matrix(.707 0 0 -.707 5127.146 -2072.5)"/></g><use xlink:href="#l" data-mml-node="mi" transform="matrix(.707 0 0 -.707 5323.692 -2072.5)"/><g data-mml-node="TeXAtom"><use xlink:href="#n" data-mml-node="mo" transform="matrix(.707 0 0 -.707 5666.587 -2072.5)"/></g><use xlink:href="#n" data-mml-node="mo" transform="matrix(.707 0 0 -.707 5863.133 -2072.5)"/></g><path stroke="none" d="M4830.6-2662.5h1329.2v-60H4830.6z"/></g><g data-mml-node="mi" transform="matrix(1 0 0 -1 6279.8 -2442.5)"><use xlink:href="#o"/><use xlink:href="#p" transform="translate(500)"/><use xlink:href="#q" transform="translate(892)"/><use xlink:href="#q" transform="translate(1336)"/><use xlink:href="#b" transform="translate(1780)"/><use xlink:href="#r" transform="translate(2280)"/></g><use xlink:href="#d" data-mml-node="mo" transform="matrix(1 0 0 -1 8953.8 -2442.5)"/><use xlink:href="#e" data-mml-node="mo" transform="matrix(1 0 0 -1 8953.8 -2442.5)"/><g data-mml-node="mfrac"><use xlink:href="#s" data-mml-node="mi" transform="matrix(.707 0 0 -.707 9860.5 -2836.5)"/><g data-mml-node="mrow"><use xlink:href="#n" data-mml-node="mo" transform="matrix(.707 0 0 -.707 9562.8 -2072.5)"/><g data-mml-node="TeXAtom"><use xlink:href="#n" data-mml-node="mo" transform="matrix(.707 0 0 -.707 9759.346 -2072.5)"/></g><use xlink:href="#f" data-mml-node="mi" transform="matrix(.707 0 0 -.707 9955.892 -2072.5)"/><g data-mml-node="TeXAtom"><use xlink:href="#n" data-mml-node="mo" transform="matrix(.707 0 0 -.707 10271.214 -2072.5)"/></g><use xlink:href="#n" data-mml-node="mo" transform="matrix(.707 0 0 -.707 10467.76 -2072.5)"/></g><path stroke="none" d="M9462.8-2662.5h1301.7v-60H9462.8z"/></g><use xlink:href="#g" data-mml-node="mo" transform="matrix(1 0 0 -1 10884.5 -2442.5)"/></g></g><g data-mml-node="mtr"><g data-mml-node="mtd"><g data-mml-node="mfrac"><g data-mml-node="msub"><use xlink:href="#l" data-mml-node="mi" transform="matrix(.707 0 0 -.707 5183.6 -1288.2)"/><g data-mml-node="TeXAtom"><use xlink:href="#t" data-mml-node="mi" transform="matrix(.49985 0 0 -.49985 5526.495 -1182.15)"/></g></g><g data-mml-node="mrow"><use xlink:href="#n" data-mml-node="mo" transform="matrix(.707 0 0 -.707 4930.6 -369.6)"/><g data-mml-node="TeXAtom"><use xlink:href="#n" data-mml-node="mo" transform="matrix(.707 0 0 -.707 5127.146 -369.6)"/></g><use xlink:href="#l" data-mml-node="mi" transform="matrix(.707 0 0 -.707 5323.692 -369.6)"/><g data-mml-node="TeXAtom"><use xlink:href="#n" data-mml-node="mo" transform="matrix(.707 0 0 -.707 5666.587 -369.6)"/></g><use xlink:href="#n" data-mml-node="mo" transform="matrix(.707 0 0 -.707 5863.133 -369.6)"/></g><path stroke="none" d="M4830.6-959.6h1329.2v-60H4830.6z"/></g><g data-mml-node="mi" transform="matrix(1 0 0 -1 6279.8 -739.6)"><use xlink:href="#o"/><use xlink:href="#p" transform="translate(500)"/><use xlink:href="#q" transform="translate(892)"/><use xlink:href="#q" transform="translate(1336)"/><use xlink:href="#b" transform="translate(1780)"/><use xlink:href="#r" transform="translate(2280)"/></g><use xlink:href="#d" data-mml-node="mo" transform="matrix(1 0 0 -1 8953.8 -739.6)"/><use xlink:href="#e" data-mml-node="mo" transform="matrix(1 0 0 -1 8953.8 -739.6)"/><g data-mml-node="mfrac"><use xlink:href="#s" data-mml-node="mi" transform="matrix(.707 0 0 -.707 9860.5 -1133.6)"/><g data-mml-node="mrow"><use xlink:href="#n" data-mml-node="mo" transform="matrix(.707 0 0 -.707 9562.8 -369.6)"/><g data-mml-node="TeXAtom"><use xlink:href="#n" data-mml-node="mo" transform="matrix(.707 0 0 -.707 9759.346 -369.6)"/></g><use xlink:href="#f" data-mml-node="mi" transform="matrix(.707 0 0 -.707 9955.892 -369.6)"/><g data-mml-node="TeXAtom"><use xlink:href="#n" data-mml-node="mo" transform="matrix(.707 0 0 -.707 10271.214 -369.6)"/></g><use xlink:href="#n" data-mml-node="mo" transform="matrix(.707 0 0 -.707 10467.76 -369.6)"/></g><path stroke="none" d="M9462.8-959.6h1301.7v-60H9462.8z"/></g><use xlink:href="#g" data-mml-node="mo" transform="matrix(1 0 0 -1 10884.5 -739.6)"/></g></g><g data-mml-node="mtr"><g data-mml-node="mtd"><g data-mml-node="mfrac"><g data-mml-node="msub"><use xlink:href="#l" data-mml-node="mi" transform="matrix(.707 0 0 -.707 5189.8 414.7)"/><g data-mml-node="TeXAtom"><use xlink:href="#u" data-mml-node="mi" transform="matrix(.49985 0 0 -.49985 5532.695 520.75)"/></g></g><g data-mml-node="mrow"><use xlink:href="#n" data-mml-node="mo" transform="matrix(.707 0 0 -.707 4930.6 1236.3)"/><g data-mml-node="TeXAtom"><use xlink:href="#n" data-mml-node="mo" transform="matrix(.707 0 0 -.707 5127.146 1236.3)"/></g><use xlink:href="#l" data-mml-node="mi" transform="matrix(.707 0 0 -.707 5323.692 1236.3)"/><g data-mml-node="TeXAtom"><use xlink:href="#n" data-mml-node="mo" transform="matrix(.707 0 0 -.707 5666.587 1236.3)"/></g><use xlink:href="#n" data-mml-node="mo" transform="matrix(.707 0 0 -.707 5863.133 1236.3)"/></g><path stroke="none" d="M4830.6 646.3h1329.2v-60H4830.6z"/></g><g data-mml-node="mi" transform="matrix(1 0 0 -1 6279.8 866.3)"><use xlink:href="#o"/><use xlink:href="#p" transform="translate(500)"/><use xlink:href="#q" transform="translate(892)"/><use xlink:href="#q" transform="translate(1336)"/><use xlink:href="#b" transform="translate(1780)"/><use xlink:href="#r" transform="translate(2280)"/></g><use xlink:href="#d" data-mml-node="mo" transform="matrix(1 0 0 -1 8953.8 866.3)"/><use xlink:href="#e" data-mml-node="mo" transform="matrix(1 0 0 -1 8953.8 866.3)"/><g data-mml-node="mfrac"><use xlink:href="#s" data-mml-node="mi" transform="matrix(.707 0 0 -.707 9860.5 472.3)"/><g data-mml-node="mrow"><use xlink:href="#n" data-mml-node="mo" transform="matrix(.707 0 0 -.707 9562.8 1236.3)"/><g data-mml-node="TeXAtom"><use xlink:href="#n" data-mml-node="mo" transform="matrix(.707 0 0 -.707 9759.346 1236.3)"/></g><use xlink:href="#f" data-mml-node="mi" transform="matrix(.707 0 0 -.707 9955.892 1236.3)"/><g data-mml-node="TeXAtom"><use xlink:href="#n" data-mml-node="mo" transform="matrix(.707 0 0 -.707 10271.214 1236.3)"/></g><use xlink:href="#n" data-mml-node="mo" transform="matrix(.707 0 0 -.707 10467.76 1236.3)"/></g><path stroke="none" d="M9462.8 646.3h1301.7v-60H9462.8z"/></g><use xlink:href="#g" data-mml-node="mo" transform="matrix(1 0 0 -1 10884.5 866.3)"/></g></g><g data-mml-node="mtr"><g data-mml-node="mtd"><g data-mml-node="mi" transform="matrix(1 0 0 -1 6185.1 2457.3)"><use xlink:href="#a"/><use xlink:href="#b" transform="translate(278)"/><use xlink:href="#c" transform="translate(778)"/></g><use xlink:href="#d" data-mml-node="mo" transform="matrix(1 0 0 -1 7463.1 2457.3)"/><use xlink:href="#e" data-mml-node="mo" transform="matrix(1 0 0 -1 7463.1 2457.3)"/><g data-mml-node="TeXAtom"><use xlink:href="#n" data-mml-node="mo" transform="matrix(1 0 0 -1 7852.1 2457.3)"/></g><g data-mml-node="TeXAtom"><use xlink:href="#n" data-mml-node="mo" transform="matrix(1 0 0 -1 8130.1 2457.3)"/></g><use xlink:href="#f" data-mml-node="mi" transform="matrix(1 0 0 -1 8408.1 2457.3)"/><g data-mml-node="TeXAtom"><use xlink:href="#n" data-mml-node="mo" transform="matrix(1 0 0 -1 8854.1 2457.3)"/></g><g data-mml-node="TeXAtom"><use xlink:href="#n" data-mml-node="mo" transform="matrix(1 0 0 -1 9132.1 2457.3)"/></g><use xlink:href="#g" data-mml-node="mo" transform="matrix(1 0 0 -1 9410.1 2457.3)"/></g></g></g><g data-mml-node="mo" transform="matrix(1 0 0 -1 11273.5 0)"><use xlink:href="#v" transform="translate(0 2053.3)"/><use xlink:href="#w" transform="translate(0 -2063.3)"/><svg width="875" height="2496.6" y="-998.3" viewBox="0 563.8 875 2496.6"><use xlink:href="#x" transform="scale(1 6.04)"/></svg></g></g></g></svg>