<svg xmlns="http://www.w3.org/2000/svg" width="178.577" height="22.628" viewBox="0 -892 8658 1097" xmlns:xlink="http://www.w3.org/1999/xlink"><defs><path id="a" d="M69 609q0 28 18 44t44 16q23-2 40-17t17-43q0-30-17-45t-42-15q-25 0-42 15t-18 45zM247 0q-15 3-104 3h-37Q80 3 56 1L34 0h-8v46h16q28 0 49 3 9 4 11 11t2 42v191q0 52-2 66t-14 19q-14 7-47 7H30v23q0 23 2 23l10 1q10 1 28 2t36 2 36 2 29 3 11 1h3V62q5-10 12-12t35-4h23V0h-8z"/><path id="b" d="M109 429q-27 0-43 18t-16 44q0 71 53 123t132 52q91 0 152-56t62-145q0-43-20-82t-48-68-80-74q-36-31-100-92l-59-56 76-1q157 0 167 5 7 2 24 89v3h40v-3q-1-3-13-91T421 3V0H50v31q0 7 6 15t30 35q29 32 50 56 9 10 34 37t34 37 29 33 28 34 23 30 21 32 15 29 13 32 7 30 3 33q0 63-34 109t-97 46q-33 0-58-17t-35-33-10-19q0-1 5-1 18 0 37-14t19-46q0-25-16-42t-45-18z"/><path id="c" d="M56 347q0 13 14 20h637q15-8 15-20 0-11-14-19l-318-1H72q-16 5-16 20zm0-194q0 15 16 20h636q14-10 14-20 0-13-15-20H70q-14 7-14 20z"/><path id="d" d="M98 609q0 28 18 44t44 16q23-2 40-17t17-43q0-30-17-45t-42-15q-25 0-42 15t-18 45zM28-163q30-5 36-5 60 0 71 91 2 12 2 218t-1 212q-4 18-16 24t-48 8H52v23q0 23 2 23l4 1h12q8 0 17 1t21 1 25 2q18 1 38 2t31 3 12 1h4V184q-1-220-1-243t-6-39q-16-47-58-77t-95-30q-49 0-81 26t-32 62q0 23 15 38t38 15 38-15 16-39q0-25-24-45z"/><path id="e" d="M36 46h14q39 0 47 14v64q0 19 1 43t0 50 0 55 0 57v213q0 26-1 44t0 17q-3 19-14 25t-45 9H20v23q0 23 2 23l10 1q10 1 29 2t37 2 37 2 30 3 11 1h3V463l1-230 60 54q60 54 64 60 6 9 6 17 0 19-21 21h-5v46h9q15-3 119-3 63 0 72 3h5v-46h-13q-69-5-116-44-74-63-74-67 0-1 63-93t71-102q14-19 31-26t49-7h11V0h-6q-9 3-87 3-96 0-111-3h-8v46h7q24 2 24 19 0 7-4 14-3 5-50 74t-48 69l-52-46V84q0-19 2-25t11-10q21-3 49-3h16V0h-8q-15 3-109 3T28 0h-8v46h16z"/><path id="f" d="M84 237v13l14 20h581q15-8 15-20t-15-20H98q-14 7-14 20z"/><path id="g" d="m213 578-13-5q-14-5-40-10t-58-7H83v46h19q47 2 87 15t56 24 28 22q2 3 12 3 9 0 17-6V361l1-300q7-7 12-9t24-4 62-2h26V0h-11q-21 3-159 3-136 0-157-3H88v46h64q16 0 25 1t16 3 8 2 6 5 6 4v517z"/></defs><g data-mml-node="math" stroke="currentColor" fill="currentColor" stroke-width="0"><g data-mml-node="msup"><g data-mml-node="TeXAtom"><use xlink:href="#a" data-mml-node="mtext" transform="scale(1 -1)"/></g><g data-mml-node="TeXAtom"><use xlink:href="#b" data-mml-node="mn" transform="matrix(.707 0 0 -.707 278 -413)"/></g></g><use xlink:href="#c" data-mml-node="mo" transform="matrix(1 0 0 -1 681.6 0)"/><g data-mml-node="msup"><g data-mml-node="TeXAtom"><use xlink:href="#d" data-mml-node="mtext" transform="matrix(1 0 0 -1 1459.6 0)"/></g><g data-mml-node="TeXAtom"><use xlink:href="#b" data-mml-node="mn" transform="matrix(.707 0 0 -.707 1765.6 -413)"/></g></g><use xlink:href="#c" data-mml-node="mo" transform="matrix(1 0 0 -1 2169.1 0)"/><g data-mml-node="msup"><g data-mml-node="TeXAtom"><use xlink:href="#e" data-mml-node="mtext" transform="matrix(1 0 0 -1 2947.1 0)"/></g><g data-mml-node="TeXAtom"><use xlink:href="#b" data-mml-node="mn" transform="matrix(.707 0 0 -.707 3475.1 -421.1)"/></g></g><use xlink:href="#c" data-mml-node="mo" transform="matrix(1 0 0 -1 3878.7 0)"/><g data-mml-node="TeXAtom"><use xlink:href="#a" data-mml-node="mtext" transform="matrix(1 0 0 -1 4934.4 0)"/></g><g data-mml-node="TeXAtom"><use xlink:href="#d" data-mml-node="mtext" transform="matrix(1 0 0 -1 5212.4 0)"/></g><g data-mml-node="TeXAtom"><use xlink:href="#e" data-mml-node="mtext" transform="matrix(1 0 0 -1 5518.4 0)"/></g><use xlink:href="#c" data-mml-node="mo" transform="matrix(1 0 0 -1 6324.2 0)"/><use xlink:href="#f" data-mml-node="mo" transform="matrix(1 0 0 -1 7380 0)"/><use xlink:href="#g" data-mml-node="mn" transform="matrix(1 0 0 -1 8158 0)"/></g></svg>