<svg xmlns="http://www.w3.org/2000/svg" width="161.474" height="20.622" viewBox="0 -750 7828.5 1000" xmlns:xlink="http://www.w3.org/1999/xlink"><defs><path id="a" d="M33 157q0 101 76 192t171 92q60 0 92-52 1 1 5 6t11 11 16 12q34 24 46 24 4 0 7-3t3-5q0-9-69-285-71-284-71-288 0-8 45-9h25q6-8 6-9t-3-18q-4-13-10-19h-13q-31 2-108 2h-88q-14 0-17-1-14 0-14 8 0 3 2 15 4 16 7 19t20 3q48 0 58 7 8 5 28 88t21 85q0 1-7-3-48-39-100-39-55 0-97 40T33 157zm319 169q-23 79-75 79-35 0-67-31t-50-81q-29-79-41-164v-11q0-8-1-12 0-45 18-62t43-18q54 0 111 72l8 11 54 217z"/><path id="b" d="M21 287q1 6 3 16t12 38 20 47 33 37 46 17q36 0 60-18t30-34 6-21q0-2 1-2l11 11q61 64 139 64 54 0 87-27t34-79-38-157-38-127q0-26 17-26 6 0 9 1 29 5 52 38t35 80q2 8 20 8 20 0 20-8 0-1-4-15-8-29-22-57t-46-56-69-27q-47 0-68 27t-21 56q0 19 36 120t37 152q0 59-44 59h-5q-86 0-145-101l-7-12-33-134Q156 26 151 16q-13-27-43-27-13 0-21 6T76 7t-2 10q0 13 38 163t40 163q1 5 1 23 0 39-24 39-38 0-63-100-6-20-6-21-2-6-19-6H27q-6 6-6 9z"/><path id="c" d="M56 347q0 13 14 20h637q15-8 15-20 0-11-14-19l-318-1H72q-16 5-16 20zm0-194q0 15 16 20h636q14-10 14-20 0-13-15-20H70q-14 7-14 20z"/><path id="d" d="M28 218q0 55 20 100t50 73 65 42 66 15q53 0 91-18t58-50 28-64 9-71q0-7-7-14H126v-15q0-148 100-180 20-6 44-6 42 0 72 32 17 17 27 42l10 24q3 3 16 3h3q17 0 17-10 0-4-3-13-19-55-63-87t-99-32q-95 0-158 69T28 218zm305 57q-11 128-95 136h-2q-8 0-16-1t-25-8-29-21-23-41-16-66v-7h206v8z"/><path id="e" d="M201 0q-12 3-99 3-76 0-85-3h-6v46h14q23 1 42 6t29 9 25 17 18 18 21 26 20 28l46 60-58 78q-9 13-19 27t-16 21-11 15-9 12-6 7-7 6-6 3-6 2-8 2q-6 0-36 2H16v46h7q36-2 103-2 93 0 103 2h8v-46q-36-4-36-16 0-2 10-16t28-38 29-41l4-4 25 34q32 41 32 54 0 6-2 11t-5 7-5 4-7 4l-3 1h-5v46h7q15-3 99-3 79 0 85 3h6v-46h-7q-49 0-81-17-17-8-34-27t-65-84l-16-21 62-85q66-90 71-94t17-7q18-4 53-4h17V0h-14q-8 1-20 1t-25 1-25 0-18 1h-37q-26 0-50-2l-23-1h-9v46h3q11 0 22 5t11 12q0 2-40 57l-41 55q-1-1-31-42t-34-45q-4-5-4-14 0-11 7-19t18-9q2 0 2-23V0h-7z"/><path id="f" d="M36-148h14q39 0 47 14v57q0 18 1 39t0 44 0 49 0 51v190q0 24-1 39t0 16q-3 19-14 25t-45 9H20v23q0 23 2 23l10 1q10 1 29 2t37 2 37 2 30 3 11 1h3v-26l1-26 8 7q59 44 138 44 81 0 138-64t58-161q0-101-65-164T310-11q-68 0-120 44l-8 7v-141q0-27 2-33t11-11q21-3 49-3h16v-46h-8l-24 1q-23 1-50 1t-38 1q-103 0-112-3h-8v46h16zm388 366q0 74-34 129t-85 55q-71 0-123-65V98q40-72 112-72 51 0 90 54t40 138z"/><path id="h" d="M94 250q0 69 10 131t23 107 37 88 38 67 42 52 33 34 25 21h17q14 0 14-9 0-3-17-21t-41-53-49-86-42-138-17-193 17-192 41-139 49-86 42-53 17-21q0-9-15-9h-16l-28 24q-94 85-137 212T94 250z"/><path id="i" d="M42 46h14q39 0 47 14v64q0 19 1 43t0 50 0 55 0 57v213q0 26-1 44t0 17q-3 19-14 25t-45 9H26v23q0 23 2 23l10 1q10 1 29 2t37 2 37 2 30 3 11 1h3V379q0-317 1-319 4-8 12-11 21-3 49-3h16V0h-8l-23 1q-23 1-49 1t-38 1-38 0-50-2L34 0h-8v46h16z"/><path id="j" d="M28 214q0 95 65 164t157 70q90 0 155-68t66-165q0-95-64-160T250-10q-97 0-159 67T28 214zM250 30q122 0 122 163v57q0 22-1 38t-7 38-16 36-31 28-49 20q-5 1-16 1-30 0-57-12-43-22-56-61t-13-92v-20q0-96 19-135 32-61 105-61z"/><path id="k" d="M329 409q44 44 100 44 30 0 43-19t13-38q0-14-9-25t-27-11q-33 0-37 30-2 14 3 21 0 1 1 3v1q-28-3-53-22-8-5-8-7 0-1 4-5t9-12 11-18 9-26 4-33q0-62-49-105t-121-44q-50 0-99 28-11-18-11-38 0-35 26-52 9-6 17-6t72-2q84-1 108-6 61-9 96-41 39-39 39-98 0-67-78-103-60-31-142-31-83 0-143 31-78 35-78 100 0 36 21 60t42 33l11 6q-36 31-36 84 0 47 29 85-44 44-44 99 0 63 50 106t121 44q51 0 95-26l11-7zm-30-66q-5 28-26 44t-52 17q-29 0-50-16t-26-45q-3-17-3-51 0-44 7-65t30-35q17-10 43-10 22 0 38 7t23 18 11 20 5 15q3 16 3 50t-3 51zM403-75q0 25-14 41t-41 23-49 9-54 2h-27q-67 0-80-6-20-9-31-28T95-74q0-10 6-23t21-30 48-28 80-12q69 0 111 28t42 64z"/><path id="l" d="m60 749 4 1h22l28-24q94-85 137-212t43-264q0-68-10-131T261 12t-37-88-38-67-41-51-32-33-23-19l-4-4H63q-3 0-5 3t-3 9q1 1 11 13Q221-64 221 250T66 725q-10 12-11 13 0 8 5 11z"/></defs><g data-mml-node="math" stroke="currentColor" fill="currentColor" stroke-width="0"><g data-mml-node="msup"><use xlink:href="#a" data-mml-node="mi" transform="scale(1 -1)"/><g data-mml-node="TeXAtom"><use xlink:href="#b" data-mml-node="mi" transform="matrix(.707 0 0 -.707 446 -413)"/></g></g><use xlink:href="#c" data-mml-node="mo" transform="matrix(1 0 0 -1 1198 0)"/><g data-mml-node="mi" transform="matrix(1 0 0 -1 2253.8 0)"><use xlink:href="#d"/><use xlink:href="#e" transform="translate(444)"/><use xlink:href="#f" transform="translate(972)"/></g><use xlink:href="#g" data-mml-node="mo" transform="matrix(1 0 0 -1 3781.8 0)"/><use xlink:href="#h" data-mml-node="mo" transform="matrix(1 0 0 -1 3781.8 0)"/><use xlink:href="#b" data-mml-node="mi" transform="matrix(1 0 0 -1 4170.8 0)"/><g data-mml-node="mi" transform="matrix(1 0 0 -1 4937.5 0)"><use xlink:href="#i"/><use xlink:href="#j" transform="translate(278)"/><use xlink:href="#k" transform="translate(778)"/></g><use xlink:href="#g" data-mml-node="mo" transform="matrix(1 0 0 -1 6215.5 0)"/><use xlink:href="#h" data-mml-node="mo" transform="matrix(1 0 0 -1 6215.5 0)"/><use xlink:href="#a" data-mml-node="mi" transform="matrix(1 0 0 -1 6604.5 0)"/><use xlink:href="#l" data-mml-node="mo" transform="matrix(1 0 0 -1 7050.5 0)"/><use xlink:href="#l" data-mml-node="mo" transform="matrix(1 0 0 -1 7439.5 0)"/></g></svg>