<svg xmlns="http://www.w3.org/2000/svg" width="416.686" height="52.795" viewBox="0 -1529.8 20202.2 2559.7" xmlns:xlink="http://www.w3.org/1999/xlink"><defs><path id="a" d="M295 316q0 40-27 69t-78 29q-36 0-62-13-30-19-30-52-1-5 0-13t16-24 43-25q18-5 44-9t44-9 32-13q17-8 33-20t32-41 17-62q0-62-38-102T198-10h-8q-52 0-96 36l-8-7-9-9Q71 4 65-1L54-11H42q-3 0-9 6v137q0 21 2 25t10 5h9q12 0 16-4t5-12 7-27 19-42q35-51 97-51 97 0 97 78 0 29-18 47-20 24-83 36t-83 23q-36 17-57 46t-21 62q0 39 17 66t43 40 50 18 44 5h11q40 0 70-15l15-8 9 7q10 9 22 17h12q3 0 9-6V310l-6-6h-28q-6 6-6 12z"/><path id="b" d="M42 46h14q39 0 47 14v64q0 19 1 43t0 50 0 55 0 57v213q0 26-1 44t0 17q-3 19-14 25t-45 9H26v23q0 23 2 23l10 1q10 1 29 2t37 2 37 2 30 3 11 1h3V379q0-317 1-319 4-8 12-11 21-3 49-3h16V0h-8l-23 1q-23 1-49 1t-38 1-38 0-50-2L34 0h-8v46h16z"/><path id="c" d="M28 218q0 55 20 100t50 73 65 42 66 15q53 0 91-18t58-50 28-64 9-71q0-7-7-14H126v-15q0-148 100-180 20-6 44-6 42 0 72 32 17 17 27 42l10 24q3 3 16 3h3q17 0 17-10 0-4-3-13-19-55-63-87t-99-32q-95 0-158 69T28 218zm305 57q-11 128-95 136h-2q-8 0-16-1t-25-8-29-21-23-41-16-66v-7h206v8z"/><path id="d" d="M36 46h14q39 0 47 14v31q0 14 1 31t0 39 0 42v125l-1 23q-3 19-14 25t-45 9H20v23q0 23 2 23l10 1q10 1 28 2t36 2q16 1 35 2t29 3 11 1h3v-69q39 68 97 68h6q45 0 66-22t21-46q0-21-13-36t-38-15q-25 0-37 16t-13 34q0 9 2 16t5 12 3 5q-2 2-23-4-16-8-24-15-47-45-47-179V101q0-12 1-20t0-15v-5q1-2 3-4t5-3 5-3 7-2 7-1 9-1 9 0 10-1 10 0h31V0h-9q-18 3-127 3Q37 3 28 0h-8v46h16z"/><path id="e" d="M36-148h14q39 0 47 14v57q0 18 1 39t0 44 0 49 0 51v190q0 24-1 39t0 16q-3 19-14 25t-45 9H20v23q0 23 2 23l10 1q10 1 29 2t37 2 37 2 30 3 11 1h3v-26l1-26 8 7q59 44 138 44 81 0 138-64t58-161q0-101-65-164T310-11q-68 0-120 44l-8 7v-141q0-27 2-33t11-11q21-3 49-3h16v-46h-8l-24 1q-23 1-50 1t-38 1q-103 0-112-3h-8v46h16zm388 366q0 74-34 129t-85 55q-71 0-123-65V98q40-72 112-72 51 0 90 54t40 138z"/><path id="f" d="M94 250q0 69 10 131t23 107 37 88 38 67 42 52 33 34 25 21h17q14 0 14-9 0-3-17-21t-41-53-49-86-42-138-17-193 17-192 41-139 49-86 42-53 17-21q0-9-15-9h-16l-28 24q-94 85-137 212T94 250z"/><path id="g" d="M33 157q0 101 76 192t171 92q60 0 92-52 1 1 5 6t11 11 16 12q34 24 46 24 4 0 7-3t3-5q0-9-69-285-71-284-71-288 0-8 45-9h25q6-8 6-9t-3-18q-4-13-10-19h-13q-31 2-108 2h-88q-14 0-17-1-14 0-14 8 0 3 2 15 4 16 7 19t20 3q48 0 58 7 8 5 28 88t21 85q0 1-7-3-48-39-100-39-55 0-97 40T33 157zm319 169q-23 79-75 79-35 0-67-31t-50-81q-29-79-41-164v-11q0-8-1-12 0-45 18-62t43-18q54 0 111 72l8 11 54 217z"/><path id="h" d="m213 578-13-5q-14-5-40-10t-58-7H83v46h19q47 2 87 15t56 24 28 22q2 3 12 3 9 0 17-6V361l1-300q7-7 12-9t24-4 62-2h26V0h-11q-21 3-159 3-136 0-157-3H88v46h64q16 0 25 1t16 3 8 2 6 5 6 4v517z"/><path id="i" d="M78 35v25l16 43 43 18q28 0 50-25t23-88q0-35-9-68t-21-57-26-41-24-27-13-9q-4 0-13 9t-9 13q0 4 11 16t25 30 26 50 16 73V9l-1-1q-2-1-5-2t-6-3-9-2-12-1q-27 0-44 17z"/><path id="j" d="M109 429q-27 0-43 18t-16 44q0 71 53 123t132 52q91 0 152-56t62-145q0-43-20-82t-48-68-80-74q-36-31-100-92l-59-56 76-1q157 0 167 5 7 2 24 89v3h40v-3q-1-3-13-91T421 3V0H50v31q0 7 6 15t30 35q29 32 50 56 9 10 34 37t34 37 29 33 28 34 23 30 21 32 15 29 13 32 7 30 3 33q0 63-34 109t-97 46q-33 0-58-17t-35-33-10-19q0-1 5-1 18 0 37-14t19-46q0-25-16-42t-45-18z"/><path id="k" d="M26 385q-7 7-7 10 0 4 3 16t5 14q2 5 9 5t51 1h53l19 80q3 11 7 29t7 26 6 20 8 17 10 12 14 9 18 2q18-1 25-11t7-19q0-7-9-47t-20-79l-10-37q0-2 50-2h51q7-7 7-11 0-22-13-35H210l-36-145Q135 80 135 68q0-42 27-42 35 0 68 34t53 84q2 6 5 7t15 2h4q15 0 15-8 0-3-3-12-5-16-18-38t-34-47-51-42-61-17q-30 0-57 15T59 56q-2 8-2 27v18l35 140q35 141 36 142 0 2-51 2H26z"/><path id="l" d="m60 749 4 1h22l28-24q94-85 137-212t43-264q0-68-10-131T261 12t-37-88-38-67-41-51-32-33-23-19l-4-4H63q-3 0-5 3t-3 9q1 1 11 13Q221-64 221 250T66 725q-10 12-11 13 0 8 5 11z"/><path id="m" d="M56 347q0 13 14 20h637q15-8 15-20 0-11-14-19l-318-1H72q-16 5-16 20zm0-194q0 15 16 20h636q14-10 14-20 0-13-15-20H70q-14 7-14 20z"/><path id="n" d="m618-943-6-6h-30l-14 6q-96 40-157 102t-79 138q-5 21-5 50t-2 303q-1 322-2 332-6 42-22 79t-37 63-43 47-42 34-32 20-15 9q-2 4-2 16v8q0 3 1 6t1 3 2 2 5 3 5 3q63 33 112 92 54 69 67 152 1 10 2 332 1 273 1 303t6 51q37 153 234 238l16 7h30l6-6v-15q0-16-2-18l-8-5q-9-4-23-13t-33-21-37-29-36-38-30-48-20-57q-4-20-4-48t-2-301q-1-272-1-302t-6-51q-9-39-28-74t-42-60-49-46-47-34-36-20-17-10l-9-3 17-9q85-42 140-104T416 3q5-21 5-51t2-301v-123q1-205 5-222 1-3 1-5 5-23 14-44t22-39 26-34 28-29 29-23 26-18 21-13 15-9l6-2q2-2 2-18v-15z"/><path id="o" d="M84 237v13l14 20h581q15-8 15-20t-15-20H98q-14 7-14 20z"/><path id="p" d="M69 609q0 28 18 44t44 16q23-2 40-17t17-43q0-30-17-45t-42-15q-25 0-42 15t-18 45zM247 0q-15 3-104 3h-37Q80 3 56 1L34 0h-8v46h16q28 0 49 3 9 4 11 11t2 42v191q0 52-2 66t-14 19q-14 7-47 7H30v23q0 23 2 23l10 1q10 1 28 2t36 2 36 2 29 3 11 1h3V62q5-10 12-12t35-4h23V0h-8z"/><path id="q" d="M273 0q-18 3-127 3Q43 3 34 0h-8v46h16q28 0 49 3 8 3 12 11 1 2 1 164v161H33v46h71v66l1 67 2 10q19 65 64 94t95 36h9q8 0 14 1 41-3 62-26t21-52q0-23-14-37t-37-14-37 14-14 37q0 20 18 40h-4q-4 1-11 1-28 0-50-21t-34-55q-6-20-7-95v-66h111v-46H185V225q0-162 1-164t3-4 5-3 5-3 7-2 7-1 9-1 9 0 10-1 10 0h31V0h-9z"/><path id="s" d="M55 251q0 77 57 135t137 58 137-56 58-139q0-78-56-136T250 55q-80 0-137 57T55 251z"/><path id="t" d="M84 520q0 8 4 13t8 6l3 1q7 0 154-69t291-137l143-69q7-5 7-15t-7-15q-2-2-292-139L107-40h-6q-18 2-18 20v3q-1 7 15 16 19 10 150 72 78 37 130 61l248 118-248 118Q90 504 86 509q-2 4-2 11z"/><path id="u" d="M96 585q56 81 153 81 48 0 96-26t78-92q37-83 37-228 0-155-43-237-20-42-55-67t-61-31-51-7q-26 0-52 6t-61 32-55 67q-43 82-43 237 0 174 57 265zm225 12q-30 32-71 32-42 0-72-32-25-26-33-72t-8-192q0-158 8-208t36-79q28-30 69-30 40 0 68 30 29 30 36 84t8 203q0 145-8 191t-33 73z"/><path id="v" d="M28 214q0 95 65 164t157 70q90 0 155-68t66-165q0-95-64-160T250-10q-97 0-159 67T28 214zM250 30q122 0 122 163v57q0 22-1 38t-7 38-16 36-31 28-49 20q-5 1-16 1-30 0-57-12-43-22-56-61t-13-92v-20q0-96 19-135 32-61 105-61z"/><path id="w" d="M27 422q53 4 82 56t32 122v15h40V431h135v-46H181V241q1-125 1-141t7-32q14-39 49-39 44 0 54 71 1 8 1 46v35h40v-47q0-77-42-117-27-27-70-27-34 0-59 12t-38 31-19 35-7 32q-1 7-1 148v137H18v37h9z"/><path id="x" d="M41 46h14q39 0 47 14v107q0 24 1 50t0 55 0 57v153q0 34-1 60t0 44 0 17q-3 19-14 25t-45 9H25v23q0 23 2 23l10 1q10 1 29 2t37 2 37 2 30 3 11 1h3V367q60 75 144 75 123 0 135-113 1-7 1-139v-86q0-38 2-45t11-10q21-3 49-3h16V0h-8l-24 1q-23 1-50 1t-38 1Q319 3 310 0h-8v46h16q61 0 61 16 1 2 1 138-1 135-2 143-6 28-20 42t-24 17-26 2q-45 0-79-34-27-27-34-55t-8-83V108q0-30 1-40t3-13 9-6q21-3 49-3h16V0h-8l-23 1q-24 1-51 1t-38 1Q42 3 33 0h-8v46h16z"/><path id="y" d="M90 368q-6 10-14 12t-36 5H18v46h6l19-1q19 0 41-1t32-1q90 0 105 3h8v-46h-14q-38-2-38-17 0-1 44-129l44-126 74 215-6 17q-10 29-17 34-8 5-38 6h-20v46h6q6-3 84-3 91 0 106 3h7v-46h-9q-48 0-48-16 0-3 14-45t31-90 32-91l15-43 41 119q42 122 42 128 0 16-15 26t-34 12h-8v46h7q12-3 95-3 68 0 74 3h5v-46h-12q-5 0-9-1-47-7-63-50l-60-173q-13-37-31-90-20-59-25-70t-16-12h-8q-19 0-23 7-1 1-49 137l-46 134q-2-4-95-271-5-7-23-7h-5q-13 0-18 8L90 368z"/></defs><g data-mml-node="math" stroke="currentColor" fill="currentColor" stroke-width="0"><g data-mml-node="TeXAtom"><g data-mml-node="mtext" transform="scale(1 -1)"><use xlink:href="#a"/><use xlink:href="#b" transform="translate(394)"/><use xlink:href="#c" transform="translate(672)"/><use xlink:href="#d" transform="translate(1116)"/><use xlink:href="#e" transform="translate(1508)"/></g></g><use xlink:href="#f" data-mml-node="mo" transform="matrix(1 0 0 -1 2064 0)"/><g data-mml-node="msub"><use xlink:href="#g" data-mml-node="mi" transform="matrix(1 0 0 -1 2453 0)"/><g data-mml-node="TeXAtom"><use xlink:href="#h" data-mml-node="mn" transform="matrix(.707 0 0 -.707 2899 150)"/></g></g><use xlink:href="#i" data-mml-node="mo" transform="matrix(1 0 0 -1 3302.6 0)"/><g data-mml-node="msub"><use xlink:href="#g" data-mml-node="mi" transform="matrix(1 0 0 -1 3747.2 0)"/><g data-mml-node="TeXAtom"><use xlink:href="#j" data-mml-node="mn" transform="matrix(.707 0 0 -.707 4193.2 150)"/></g></g><use xlink:href="#i" data-mml-node="mo" transform="matrix(1 0 0 -1 4596.8 0)"/><use xlink:href="#k" data-mml-node="mi" transform="matrix(1 0 0 -1 5041.4 0)"/><use xlink:href="#l" data-mml-node="mo" transform="matrix(1 0 0 -1 5402.4 0)"/><use xlink:href="#m" data-mml-node="mo" transform="matrix(1 0 0 -1 6069.2 0)"/><g data-mml-node="mrow"><use xlink:href="#n" data-mml-node="mo" transform="matrix(1 0 0 -1 7125 0)"/><g data-mml-node="mtable"><g data-mml-node="mtr"><g data-mml-node="mtd"><g data-mml-node="msub"><use xlink:href="#g" data-mml-node="mi" transform="matrix(1 0 0 -1 7875 -647.3)"/><g data-mml-node="TeXAtom"><use xlink:href="#h" data-mml-node="mn" transform="matrix(.707 0 0 -.707 8321 -497.3)"/></g></g><use xlink:href="#f" data-mml-node="mo" transform="matrix(1 0 0 -1 8724.6 -647.3)"/><g data-mml-node="msubsup"><use xlink:href="#g" data-mml-node="mi" transform="matrix(1 0 0 -1 9113.6 -647.3)"/><g data-mml-node="TeXAtom"><use xlink:href="#o" data-mml-node="mo" transform="matrix(.707 0 0 -.707 9559.6 -1058.9)"/><use xlink:href="#h" data-mml-node="mn" transform="matrix(.707 0 0 -.707 10109.646 -1058.9)"/></g><g data-mml-node="TeXAtom"><use xlink:href="#h" data-mml-node="mn" transform="matrix(.707 0 0 -.707 9559.6 -350)"/></g></g><g data-mml-node="msub"><use xlink:href="#g" data-mml-node="mi" transform="matrix(1 0 0 -1 10513.2 -647.3)"/><g data-mml-node="TeXAtom"><use xlink:href="#j" data-mml-node="mn" transform="matrix(.707 0 0 -.707 10959.2 -497.3)"/></g></g><g data-mml-node="msup"><use xlink:href="#l" data-mml-node="mo" transform="matrix(1 0 0 -1 11362.8 -647.3)"/><g data-mml-node="TeXAtom"><use xlink:href="#k" data-mml-node="mi" transform="matrix(.707 0 0 -.707 11751.8 -1010.3)"/></g></g><use xlink:href="#i" data-mml-node="mo" transform="matrix(1 0 0 -1 12057.1 -647.3)"/></g><g data-mml-node="mtd"><g data-mml-node="mtext" transform="matrix(1 0 0 -1 14891.1 -647.3)"><use xlink:href="#p"/><use xlink:href="#q" transform="translate(278)"/><use xlink:href="#r" transform="translate(584)"/></g><g data-mml-node="msub"><use xlink:href="#g" data-mml-node="mi" transform="matrix(1 0 0 -1 15725.1 -647.3)"/><g data-mml-node="TeXAtom"><use xlink:href="#h" data-mml-node="mn" transform="matrix(.707 0 0 -.707 16171.1 -497.3)"/></g></g><use xlink:href="#s" data-mml-node="mo" transform="matrix(1 0 0 -1 16796.9 -647.3)"/><g data-mml-node="msub"><use xlink:href="#g" data-mml-node="mi" transform="matrix(1 0 0 -1 17519.1 -647.3)"/><g data-mml-node="TeXAtom"><use xlink:href="#j" data-mml-node="mn" transform="matrix(.707 0 0 -.707 17965.1 -497.3)"/></g></g><use xlink:href="#t" data-mml-node="mo" transform="matrix(1 0 0 -1 18646.4 -647.3)"/><use xlink:href="#u" data-mml-node="mn" transform="matrix(1 0 0 -1 19702.2 -647.3)"/></g></g><g data-mml-node="mtr"><g data-mml-node="mtd"><g data-mml-node="msub"><use xlink:href="#g" data-mml-node="mi" transform="matrix(1 0 0 -1 7875 732.5)"/><g data-mml-node="TeXAtom"><use xlink:href="#h" data-mml-node="mn" transform="matrix(.707 0 0 -.707 8321 882.5)"/></g></g><use xlink:href="#f" data-mml-node="mo" transform="matrix(1 0 0 -1 8724.6 732.5)"/><g data-mml-node="msubsup"><use xlink:href="#g" data-mml-node="mi" transform="matrix(1 0 0 -1 9113.6 732.5)"/><g data-mml-node="TeXAtom"><use xlink:href="#o" data-mml-node="mo" transform="matrix(.707 0 0 -.707 9559.6 320.9)"/><use xlink:href="#h" data-mml-node="mn" transform="matrix(.707 0 0 -.707 10109.646 320.9)"/></g><g data-mml-node="TeXAtom"><use xlink:href="#h" data-mml-node="mn" transform="matrix(.707 0 0 -.707 9559.6 1029.8)"/></g></g><use xlink:href="#f" data-mml-node="mo" transform="matrix(1 0 0 -1 10513.2 732.5)"/><use xlink:href="#o" data-mml-node="mo" transform="matrix(1 0 0 -1 10902.2 732.5)"/><g data-mml-node="msub"><use xlink:href="#g" data-mml-node="mi" transform="matrix(1 0 0 -1 11680.2 732.5)"/><g data-mml-node="TeXAtom"><use xlink:href="#j" data-mml-node="mn" transform="matrix(.707 0 0 -.707 12126.2 882.5)"/></g></g><use xlink:href="#l" data-mml-node="mo" transform="matrix(1 0 0 -1 12529.8 732.5)"/><g data-mml-node="msup"><use xlink:href="#l" data-mml-node="mo" transform="matrix(1 0 0 -1 12918.8 732.5)"/><g data-mml-node="TeXAtom"><use xlink:href="#k" data-mml-node="mi" transform="matrix(.707 0 0 -.707 13307.8 369.5)"/></g></g><use xlink:href="#i" data-mml-node="mo" transform="matrix(1 0 0 -1 13613.1 732.5)"/></g><g data-mml-node="mtd"><g data-mml-node="mtext" transform="matrix(1 0 0 -1 14891.1 732.5)"><use xlink:href="#v"/><use xlink:href="#w" transform="translate(500)"/><use xlink:href="#x" transform="translate(889)"/><use xlink:href="#c" transform="translate(1445)"/><use xlink:href="#d" transform="translate(1889)"/><use xlink:href="#y" transform="translate(2281)"/><use xlink:href="#p" transform="translate(3003)"/><use xlink:href="#a" transform="translate(3281)"/><use xlink:href="#c" transform="translate(3675)"/></g></g></g></g></g></g></svg>