<svg xmlns="http://www.w3.org/2000/svg" width="235.465" height="38.363" viewBox="0 -1274.2 11416.1 1860" xmlns:xlink="http://www.w3.org/1999/xlink"><defs><path id="a" d="M139-249h-2q-12 0-18 14v486l1 486q10 13 19 13 13 0 20-15v-970q-8-14-18-14h-2z"/><path id="b" d="M33 157q0 101 76 192t171 92q60 0 92-52 1 1 5 6t11 11 16 12q34 24 46 24 4 0 7-3t3-5q0-9-69-285-71-284-71-288 0-8 45-9h25q6-8 6-9t-3-18q-4-13-10-19h-13q-31 2-108 2h-88q-14 0-17-1-14 0-14 8 0 3 2 15 4 16 7 19t20 3q48 0 58 7 8 5 28 88t21 85q0 1-7-3-48-39-100-39-55 0-97 40T33 157zm319 169q-23 79-75 79-35 0-67-31t-50-81q-29-79-41-164v-11q0-8-1-12 0-45 18-62t43-18q54 0 111 72l8 11 54 217z"/><path id="c" d="M56 347q0 13 14 20h637q15-8 15-20 0-11-14-19l-318-1H72q-16 5-16 20zm0-194q0 15 16 20h636q14-10 14-20 0-13-15-20H70q-14 7-14 20z"/><path id="j" d="M1001 1150q16 0 19-18 0-5-279-888L460-643q-7-7-24-7h-12q-1 3-1 5t-2 5-2 9-4 14-7 23-9 34-14 48-18 64-24 84-31 105L203 119l-65-78-27 26 101 121 52 60 208-722 511 1614q5 10 18 10z"/><path id="d" d="M52 289q7 42 54 97t116 56q35 0 64-18t43-45q42 63 101 63 37 0 64-22t28-59q0-29-14-47t-27-22-23-4q-19 0-31 11t-12 29q0 46 50 63-11 13-40 13-13 0-19-2-38-16-56-66-60-221-60-258 0-28 16-40t35-12q37 0 73 33t49 81q3 10 6 11t16 2h4q15 0 15-8 0-1-2-11-16-57-62-101T333-11q-70 0-106 63-41-62-94-62h-6q-49 0-70 26T35 71q0 32 19 52t45 20q43 0 43-42 0-20-12-35t-23-20-13-5l-3-1q0-1 6-4t16-7 19-3q36 0 62 45 9 16 23 68t28 108 16 66q5 27 5 39 0 28-15 40t-34 12q-40 0-75-32t-49-82q-2-9-5-10t-16-2H58q-6 6-6 11z"/><path id="e" d="M109 429q-27 0-43 18t-16 44q0 71 53 123t132 52q91 0 152-56t62-145q0-43-20-82t-48-68-80-74q-36-31-100-92l-59-56 76-1q157 0 167 5 7 2 24 89v3h40v-3q-1-3-13-91T421 3V0H50v31q0 7 6 15t30 35q29 32 50 56 9 10 34 37t34 37 29 33 28 34 23 30 21 32 15 29 13 32 7 30 3 33q0 63-34 109t-97 46q-33 0-58-17t-35-33-10-19q0-1 5-1 18 0 37-14t19-46q0-25-16-42t-45-18z"/><path id="f" d="M56 237v13l14 20h299v150l1 150q10 13 19 13 13 0 20-15V270h298q15-8 15-20t-15-20H409V-68q-8-14-18-14h-4q-12 0-18 14v298H70q-14 7-14 20z"/><path id="g" d="M21 287q0 14 15 48t48 71 74 36q41 0 66-23t26-64q-2-19-3-21 0-3-16-46t-33-97-16-86q0-43 14-60t42-18q23 0 43 11t31 23 27 33q0 1 5 20t14 59 19 74q38 150 42 157 13 27 43 27 13 0 21-7t11-12 2-9q0-13-49-210T391-23q-28-83-97-132t-138-50q-45 0-79 22t-34 66q0 22 7 37t19 22 20 10 17 3q44 0 44-42 0-20-12-35t-23-20-13-5l-3-1q2-5 19-12t34-7h8q17 0 26 2 33 9 61 38t43 62 23 56 8 30l-6-4q-6-4-19-11T270-6q-20-5-39-5-46 0-81 22t-46 71q-1 7-1 31 0 57 35 149t35 117v14q0 3-4 7t-11 4h-4q-23 0-42-19t-30-41-17-42-8-22q-2-2-16-2H27q-6 6-6 9z"/><path id="h" d="M347 338q-10 0-53 11t-63 11q-20 0-34-4t-23-10-12-11-7-11l-2-4q-3-3-15-3-21 0-21 8 0 5 3 14 13 39 43 67t66 34q12 2 17 2 25 0 45-17t38-33 38-17q22 0 44 33t23 33q1 1 15 1h13q6-6 6-8 0-4-5-14t-14-21-17-22-14-19l-7-9q-43-51-136-135T160 106l-12-12 15-1q22 0 64-11t63-11q38 0 70 19t42 50q4 9 7 11t15 2q19 0 19-10 0-5-1-9-17-62-66-103t-98-42q-26 0-46 17t-39 34-38 17q-44 0-79-60-6-8-17-8H41q-6 6-6 9 0 15 58 86 39 45 132 130t115 108q12 16 7 16z"/><path id="i" d="M580 385q0 21 19 39t42 19q18 0 33-18t16-57q0-29-19-115-15-56-27-92t-35-81-55-68-72-23q-44 0-78 16t-49 43q-1-1-3-4-41-55-100-55-26 0-50 6t-47 19-37 39-14 63q0 54 34 146t35 117v14q0 3-4 7t-11 4h-4q-23 0-42-19t-30-41-17-42-8-22q-2-2-16-2H27q-6 6-6 9 0 6 8 28t23 51 44 52 65 23q43 0 66-25t23-58q0-18-33-108t-33-139q0-46 21-65t53-20q43 0 76 61l5 9v32q0 6 1 8t1 7 1 9 3 13 3 17 6 24 8 32 11 43q29 114 33 123 13 27 43 27 19 0 26-10t8-19q0-13-29-128t-32-132q-2-11-2-35v-7q0-15 3-29t19-29 45-16q71 0 113 122 9 23 20 65t12 60q0 33-13 52t-26 32-13 28z"/></defs><g data-mml-node="math" stroke="currentColor" fill="currentColor" stroke-width="0"><use xlink:href="#a" data-mml-node="mo" transform="scale(1 -1)"/><g data-mml-node="TeXAtom"><use xlink:href="#a" data-mml-node="mo" transform="matrix(1 0 0 -1 278 0)"/></g><use xlink:href="#b" data-mml-node="mi" transform="matrix(1 0 0 -1 556 0)"/><g data-mml-node="TeXAtom"><use xlink:href="#a" data-mml-node="mo" transform="matrix(1 0 0 -1 1002 0)"/></g><g data-mml-node="TeXAtom"><use xlink:href="#a" data-mml-node="mo" transform="matrix(1 0 0 -1 1280 0)"/></g><use xlink:href="#c" data-mml-node="mo" transform="matrix(1 0 0 -1 1835.8 0)"/><g data-mml-node="msqrt"><g data-mml-node="msup"><use xlink:href="#d" data-mml-node="mi" transform="matrix(1 0 0 -1 3891.6 0)"/><g data-mml-node="TeXAtom"><use xlink:href="#e" data-mml-node="mn" transform="matrix(.707 0 0 -.707 4463.6 -413)"/></g></g><use xlink:href="#f" data-mml-node="mo" transform="matrix(1 0 0 -1 5089.4 0)"/><g data-mml-node="msup"><use xlink:href="#g" data-mml-node="mi" transform="matrix(1 0 0 -1 6089.6 0)"/><g data-mml-node="TeXAtom"><use xlink:href="#e" data-mml-node="mn" transform="matrix(.707 0 0 -.707 6579.6 -413)"/></g></g><use xlink:href="#f" data-mml-node="mo" transform="matrix(1 0 0 -1 7205.4 0)"/><g data-mml-node="msup"><use xlink:href="#h" data-mml-node="mi" transform="matrix(1 0 0 -1 8205.6 0)"/><g data-mml-node="TeXAtom"><use xlink:href="#e" data-mml-node="mn" transform="matrix(.707 0 0 -.707 8670.6 -413)"/></g></g><use xlink:href="#f" data-mml-node="mo" transform="matrix(1 0 0 -1 9296.4 0)"/><g data-mml-node="msup"><use xlink:href="#i" data-mml-node="mi" transform="matrix(1 0 0 -1 10296.6 0)"/><g data-mml-node="TeXAtom"><use xlink:href="#e" data-mml-node="mn" transform="matrix(.707 0 0 -.707 11012.6 -413)"/></g></g><g data-mml-node="mo" transform="matrix(1 0 0 -1 2891.6 -64.2)"><use xlink:href="#j"/></g><path stroke="none" d="M3891.6-1154.2h7524.5v-60H3891.6z"/></g></g></svg>