<svg xmlns="http://www.w3.org/2000/svg" width="100.858" height="20.622" viewBox="0 -750 4890 1000" xmlns:xlink="http://www.w3.org/1999/xlink"><defs><path id="a" d="M94 250q0 69 10 131t23 107 37 88 38 67 42 52 33 34 25 21h17q14 0 14-9 0-3-17-21t-41-53-49-86-42-138-17-193 17-192 41-139 49-86 42-53 17-21q0-9-15-9h-16l-28 24q-94 85-137 212T94 250z"/><path id="b" d="M96 585q56 81 153 81 48 0 96-26t78-92q37-83 37-228 0-155-43-237-20-42-55-67t-61-31-51-7q-26 0-52 6t-61 32-55 67q-43 82-43 237 0 174 57 265zm225 12q-30 32-71 32-42 0-72-32-25-26-33-72t-8-192q0-158 8-208t36-79q28-30 69-30 40 0 68 30 29 30 36 84t8 203q0 145-8 191t-33 73z"/><path id="c" d="M78 35v25l16 43 43 18q28 0 50-25t23-88q0-35-9-68t-21-57-26-41-24-27-13-9q-4 0-13 9t-9 13q0 4 11 16t25 30 26 50 16 73V9l-1-1q-2-1-5-2t-6-3-9-2-12-1q-27 0-44 17z"/><path id="d" d="M84 237v13l14 20h581q15-8 15-20t-15-20H98q-14 7-14 20z"/><path id="e" d="m213 578-13-5q-14-5-40-10t-58-7H83v46h19q47 2 87 15t56 24 28 22q2 3 12 3 9 0 17-6V361l1-300q7-7 12-9t24-4 62-2h26V0h-11q-21 3-159 3-136 0-157-3H88v46h64q16 0 25 1t16 3 8 2 6 5 6 4v517z"/><path id="f" d="m60 749 4 1h22l28-24q94-85 137-212t43-264q0-68-10-131T261 12t-37-88-38-67-41-51-32-33-23-19l-4-4H63q-3 0-5 3t-3 9q1 1 11 13Q221-64 221 250T66 725q-10 12-11 13 0 8 5 11z"/></defs><g data-mml-node="math" stroke="currentColor" fill="currentColor" stroke-width="0"><use xlink:href="#a" data-mml-node="mo" transform="scale(1 -1)"/><use xlink:href="#b" data-mml-node="mn" transform="matrix(1 0 0 -1 389 0)"/><use xlink:href="#c" data-mml-node="mo" transform="matrix(1 0 0 -1 889 0)"/><use xlink:href="#b" data-mml-node="mn" transform="matrix(1 0 0 -1 1333.7 0)"/><use xlink:href="#c" data-mml-node="mo" transform="matrix(1 0 0 -1 1833.7 0)"/><use xlink:href="#b" data-mml-node="mn" transform="matrix(1 0 0 -1 2278.3 0)"/><use xlink:href="#c" data-mml-node="mo" transform="matrix(1 0 0 -1 2778.3 0)"/><use xlink:href="#d" data-mml-node="mo" transform="matrix(1 0 0 -1 3223 0)"/><use xlink:href="#e" data-mml-node="mn" transform="matrix(1 0 0 -1 4001 0)"/><use xlink:href="#f" data-mml-node="mo" transform="matrix(1 0 0 -1 4501 0)"/></g></svg>